<svg width="32" height="32" viewBox="0 0 32 32" fill="none" xmlns="http://www.w3.org/2000/svg">
<g clip-path="url(#clip0_182_1272)">
<path d="M32 16C32 24.8366 24.8366 32 16 32C7.16344 32 0 24.8366 0 16C0 7.16344 7.16344 0 16 0C24.8366 0 32 7.16344 32 16ZM5.76 16C5.76 21.6554 10.3446 26.24 16 26.24C21.6554 26.24 26.24 21.6554 26.24 16C26.24 10.3446 21.6554 5.76 16 5.76C10.3446 5.76 5.76 10.3446 5.76 16Z" fill="#F58A0E"/>
<path d="M16 2.88C16 1.28942 17.2996 -0.0262764 18.8645 0.2585C21.0085 0.648652 23.0604 1.47459 24.8891 2.69648C27.5203 4.45459 29.5711 6.95345 30.7821 9.87706C31.9931 12.8007 32.3099 16.0177 31.6926 19.1214C31.0752 22.2251 29.5513 25.0761 27.3137 27.3137C25.0761 29.5513 22.2251 31.0752 19.1214 31.6926C16.0177 32.3099 12.8007 31.9931 9.87706 30.7821C6.95345 29.5711 4.45459 27.5203 2.69649 24.8891C1.47459 23.0604 0.648652 21.0085 0.258501 18.8645C-0.0262748 17.2996 1.28942 16 2.88 16C4.47058 16 5.72086 17.3141 6.16235 18.8422C6.45297 19.8481 6.89772 20.809 7.48575 21.689C8.61094 23.373 10.2102 24.6855 12.0813 25.4605C13.9524 26.2356 16.0114 26.4384 17.9977 26.0432C19.9841 25.6481 21.8087 24.6729 23.2408 23.2408C24.6729 21.8087 25.6481 19.9841 26.0432 17.9977C26.4384 16.0114 26.2356 13.9524 25.4605 12.0813C24.6855 10.2102 23.373 8.61094 21.689 7.48575C20.809 6.89772 19.8481 6.45297 18.8422 6.16235C17.3141 5.72086 16 4.47058 16 2.88Z" fill="#2ECB95"/>
</g>
<defs>
<clipPath id="clip0_182_1272">
<rect width="32" height="32" fill="white"/>
</clipPath>
</defs>
</svg>
