<svg viewBox="0 0 24 24" fill="none" xmlns="http://www.w3.org/2000/svg">
<path d="M9 7.7092C9 7.51106 9.07841 7.32097 9.21809 7.18045C9.28782 7.11016 9.37097 7.05416 9.46236 7.01608C9.55376 6.97801 9.65179 6.9584 9.75079 6.9584C9.8498 6.9584 9.94783 6.97801 10.0392 7.01608C10.1305 7.05413 10.2136 7.11004 10.2833 7.18025L14.523 11.4699L14.5247 11.4717C14.595 11.5414 14.6508 11.6244 14.6889 11.7158C14.727 11.8072 14.7466 11.9052 14.7466 12.0042C14.7466 12.1032 14.727 12.2012 14.6889 12.2926C14.6508 12.384 14.595 12.467 14.5247 12.5367L10.284 16.7774L10.2833 16.7782C10.2136 16.8484 10.1306 16.9042 10.0392 16.9423C9.94783 16.9804 9.8498 17 9.75079 17C9.65178 17 9.55375 16.9804 9.46236 16.9423C9.37097 16.9042 9.28782 16.8482 9.21809 16.778C9.07841 16.6374 9 16.4473 9 16.2492C9 16.0512 9.07856 15.8609 9.21809 15.7205L12.9331 12.0054L9.21881 8.23867L9.21809 8.23795C9.07841 8.09743 9 7.90734 9 7.7092Z" fill="#272727"/>
</svg>
