<svg width="24" height="24" viewBox="0 0 24 24" fill="none" xmlns="http://www.w3.org/2000/svg">
<path d="M12 2.39999C9.45392 2.39999 7.01213 3.41142 5.21178 5.21177C3.41143 7.01212 2.4 9.45392 2.4 12C2.4 14.5461 3.41143 16.9879 5.21178 18.7882C7.01213 20.5886 9.45392 21.6 12 21.6C14.5461 21.6 16.9879 20.5886 18.7882 18.7882C20.5886 16.9879 21.6 14.5461 21.6 12C21.6 9.45392 20.5886 7.01212 18.7882 5.21177C16.9879 3.41142 14.5461 2.39999 12 2.39999ZM8.5104 4.35599L11.4024 6.04319V8.08319L8.0796 10.4256L6.2076 9.74519L5.4564 6.73079C6.27654 5.71315 7.32207 4.90014 8.5104 4.35599ZM3.6408 12.8304L5.8332 10.8864L7.6884 11.5596L8.9424 15.5076L8.082 16.7952H5.1024C4.2834 15.6207 3.78009 14.2554 3.6408 12.8304ZM10.0476 20.172L9.0696 17.4768L9.9216 16.2012H14.082L14.9352 17.4768L13.9572 20.1708C12.6721 20.4776 11.3327 20.4788 10.0476 20.172ZM18.8976 16.7952H15.924L15.06 15.5052L16.29 11.5608L18.1704 10.884L20.3592 12.8304C20.2199 14.2554 19.7166 15.6207 18.8976 16.7952ZM18.5496 6.73919L17.7984 9.74279L15.8976 10.4268L12.6012 8.08439V6.04439L15.492 4.35599C16.6824 4.9017 17.7293 5.71726 18.5496 6.73799V6.73919Z" fill="#272727"/>
</svg>
