<svg width="24" height="24" viewBox="0 0 24 24" fill="none" xmlns="http://www.w3.org/2000/svg">
<path fill-rule="evenodd" clip-rule="evenodd" d="M3.23519 8.89734C3.39308 8.54049 3.62511 8.22134 3.91585 7.96108L9.91491 2.70193L9.91676 2.70027C10.4209 2.24931 11.0737 2 11.7501 2C12.4265 2 13.0792 2.24932 13.5834 2.70028L19.5834 7.96027L19.5844 7.96112C19.8739 8.22034 20.1053 8.538 20.2631 8.89315C20.4211 9.24869 20.5019 9.63371 20.5001 10.0228V18.7739C20.5001 19.5033 20.2104 20.2028 19.6946 20.7185C19.1789 21.2342 18.4794 21.5239 17.7501 21.5239H5.75009C5.02075 21.5239 4.32128 21.2342 3.80555 20.7185C3.28983 20.2028 3.00009 19.5033 3.00009 18.7739L3.0001 10.0339L3.00009 10.0319C2.99698 9.64134 3.07713 9.25455 3.23519 8.89734ZM9.50009 20.0239H14.0001V14.7739C14.0001 14.4424 13.8684 14.1245 13.634 13.89C13.3996 13.6556 13.0816 13.5239 12.7501 13.5239H10.7501C10.4186 13.5239 10.1006 13.6556 9.86621 13.89C9.63179 14.1245 9.50009 14.4424 9.50009 14.7739V20.0239ZM15.5001 14.7739V20.0239H17.7501C18.0816 20.0239 18.3996 19.8922 18.634 19.6578C18.8684 19.4234 19.0001 19.1055 19.0001 18.7739V10.0236C18.9999 9.84613 18.9619 9.67073 18.8886 9.50909C18.8153 9.34744 18.7081 9.20293 18.5747 9.08579L12.5749 3.83593C12.3468 3.63565 12.0536 3.5252 11.7501 3.5252C11.4466 3.5252 11.1532 3.63584 10.9251 3.83612L4.9251 9.08612C4.79176 9.20325 4.6849 9.34744 4.61162 9.50909C4.53834 9.67074 4.50032 9.84645 4.50009 10.0239V18.7739C4.50009 19.1055 4.63179 19.4234 4.86621 19.6578C5.10063 19.8922 5.41857 20.0239 5.75009 20.0239H8.00009V14.7739C8.00009 14.0446 8.28983 13.3451 8.80555 12.8294C9.32128 12.3137 10.0207 12.0239 10.7501 12.0239H12.7501C13.4794 12.0239 14.1789 12.3137 14.6946 12.8294C15.2104 13.3451 15.5001 14.0446 15.5001 14.7739Z" fill="#272727"/>
</svg>
