<svg width="95" height="42" viewBox="0 0 95 42" fill="none" xmlns="http://www.w3.org/2000/svg">
<g clip-path="url(#clip0_654_16548)">
<path d="M21.0032 41.999H25.6254V8.62192C25.6135 8.11923 25.7023 7.61922 25.8867 7.15132C26.071 6.68343 26.3472 6.25711 26.6988 5.89738C27.0505 5.53764 27.4707 5.25178 27.9345 5.05661C28.3984 4.86145 28.8966 4.76089 29.4 4.76089C29.9033 4.76089 30.4016 4.86145 30.8654 5.05661C31.3293 5.25178 31.7494 5.53764 32.1011 5.89738C32.4528 6.25711 32.7289 6.68343 32.9133 7.15132C33.0976 7.61922 33.1865 8.11923 33.1746 8.62192V42H37.7968V8.62192C37.8276 7.50096 37.6332 6.38515 37.2251 5.34051C36.817 4.29587 36.2034 3.34359 35.4206 2.53985C34.6379 1.7361 33.7018 1.09719 32.6677 0.66095C31.6336 0.224715 30.5225 0 29.4 0C28.2775 0 27.1664 0.224715 26.1323 0.66095C25.0982 1.09719 24.1621 1.7361 23.3794 2.53985C22.5966 3.34359 21.983 4.29587 21.5749 5.34051C21.1668 6.38515 20.9724 7.50096 21.0032 8.62192V42V41.999Z" fill="#F58A0E"/>
<path d="M64.0532 41.999H68.6755V8.62192C68.6636 8.11923 68.7524 7.61922 68.9368 7.15132C69.1211 6.68343 69.3972 6.25711 69.7489 5.89738C70.1006 5.53764 70.5207 5.25178 70.9846 5.05661C71.4485 4.86145 71.9467 4.76089 72.45 4.76089C72.9534 4.76089 73.4516 4.86145 73.9155 5.05661C74.3794 5.25178 74.7995 5.53764 75.1512 5.89738C75.5028 6.25711 75.779 6.68343 75.9633 7.15132C76.1477 7.61922 76.2365 8.11923 76.2246 8.62192V42H80.8469V8.62192C80.8777 7.50096 80.6833 6.38515 80.2751 5.34051C79.867 4.29587 79.2534 3.34359 78.4707 2.53985C77.6879 1.7361 76.7518 1.09719 75.7177 0.66095C74.6837 0.224715 73.5725 0 72.45 0C71.3275 0 70.2164 0.224715 69.1824 0.66095C68.1483 1.09719 67.2122 1.7361 66.4294 2.53985C65.6467 3.34359 65.0331 4.29587 64.6249 5.34051C64.2168 6.38515 64.0224 7.50096 64.0532 8.62192V42V41.999Z" fill="#F58A0E"/>
<path d="M89.859 33.2735C89.8699 34.2826 89.4804 35.2549 88.7758 35.9774C88.0713 36.6999 87.1091 37.1136 86.1 37.128H86.1766V41.8477H86.1C88.3458 41.8192 90.4883 40.9 92.0565 39.2921C93.6246 37.6842 94.4899 35.5193 94.4622 33.2735V0H89.859V33.1947" fill="#F58A0E"/>
<path d="M15.75 25.0351V8.34363C15.7448 6.13982 14.8745 4.0271 13.3283 2.46473C11.782 0.902367 9.68482 0.0166244 7.49249 0V4.5926C8.47083 4.61077 9.40309 5.01369 10.0892 5.71499C10.7753 6.41628 11.1606 7.36002 11.1623 8.34363V25.1077C11.1606 26.0913 10.7753 27.035 10.0892 27.7363C9.40309 28.4375 8.47083 28.8405 7.49249 28.8587V33.4502C9.68482 33.4336 11.782 32.5478 13.3283 30.9855C14.8745 29.4231 15.7448 27.3104 15.75 25.1066" fill="#F58A0E"/>
<path d="M4.58761 0.0766479V41.9999H0V0.0766479" fill="#F58A0E"/>
<path fill-rule="evenodd" clip-rule="evenodd" d="M47.6376 41.9999V33.474H50.5447C51.5007 33.5299 52.405 33.9998 53.0759 34.6876C53.7804 35.4101 54.1699 36.3824 54.159 37.3915V42H58.7622V37.3915C58.7899 35.1457 57.9246 32.9808 56.3565 31.3729C56.2954 31.3103 56.2334 31.2487 56.1705 31.1883C56.2408 31.122 56.3101 31.0544 56.3783 30.9855C57.9246 29.4231 58.7948 27.3104 58.8 25.1066V8.34363C58.7948 6.13982 57.9246 4.0271 56.3783 2.46473C54.848 0.918402 52.7779 0.0348766 50.61 0.000786282L50.5425 0H43.05V41.9999H47.6376ZM47.6376 4.62V28.854H50.61V28.8568C51.5637 28.8218 52.4689 28.4214 53.1393 27.7363C53.8254 27.035 54.2107 26.0913 54.2124 25.1077V8.34363C54.2107 7.36002 53.8254 6.41628 53.1393 5.71499C52.4689 5.02983 51.5637 4.62947 50.61 4.59446V4.62H47.6376Z" fill="#F58A0E"/>
</g>
<defs>
<clipPath id="clip0_654_16548">
<rect width="95" height="42" fill="white"/>
</clipPath>
</defs>
</svg>
