<svg width="24" height="24" viewBox="0 0 24 24" fill="none" xmlns="http://www.w3.org/2000/svg">
<path d="M12 20C10.8945 20 10 19.1055 10 18C10 16.8945 10.8945 16 12 16C13.1055 16 14 16.8945 14 18C14 19.1055 13.1055 20 12 20Z" fill="#272727"/>
<path d="M12 8C10.8945 8 10 7.10545 10 6C10 4.89455 10.8945 4 12 4C13.1055 4 14 4.89455 14 6C14 7.10545 13.1055 8 12 8Z" fill="#272727"/>
<path d="M12 14C10.8945 14 10 13.1055 10 12C10 10.8945 10.8945 10 12 10C13.1055 10 14 10.8945 14 12C14 13.1055 13.1055 14 12 14Z" fill="#272727"/>
</svg>
