<svg width="24" height="24" viewBox="0 0 24 24" fill="none" xmlns="http://www.w3.org/2000/svg">
<path fill-rule="evenodd" clip-rule="evenodd" d="M17.7732 2.54392L3.72083 9.57011H3.71252C3.28 9.79927 2.91614 10.1399 2.65895 10.5572C2.39158 10.991 2.25 11.4905 2.25 12.0001C2.25 12.5097 2.39158 13.0092 2.65895 13.443C2.92626 13.8767 3.30908 14.2278 3.76416 14.4568L17.7626 21.456C18.149 21.6451 18.5728 21.7456 19.003 21.7501C19.4608 21.7498 19.9113 21.6352 20.3137 21.4166C20.7164 21.1979 21.058 20.882 21.3076 20.4977C21.5571 20.1133 21.7067 19.6727 21.7426 19.2159C21.7786 18.7591 21.6997 18.3004 21.5134 17.8818L19.1135 12.5121L19.1113 12.5068C19.044 12.3464 19.0093 12.1741 19.0093 12.0001C19.0093 11.8261 19.0439 11.6538 19.1112 11.4934L21.5134 6.11853C21.7422 5.60131 21.806 5.02612 21.6961 4.47132C21.5861 3.91638 21.3077 3.40886 20.8987 3.01795C20.4898 2.62704 19.9702 2.37177 19.4109 2.28694C18.8516 2.20212 18.2796 2.29193 17.7732 2.54392ZM4.44001 13.1137L4.43782 13.1126C4.23307 13.0077 4.06124 12.8483 3.94125 12.6521C3.82127 12.4558 3.75778 12.2302 3.75778 12.0001C3.75778 11.7701 3.82127 11.5445 3.94125 11.3482C4.06124 11.1519 4.23307 10.9925 4.43782 10.8876L18.44 3.88648L18.4436 3.88475C18.6734 3.77441 18.9314 3.73696 19.1831 3.77744C19.4348 3.81791 19.6681 3.93436 19.8517 4.11118C20.0353 4.288 20.1605 4.51673 20.2104 4.76671C20.2604 5.01668 20.2327 5.27595 20.1311 5.50975L17.7408 10.8804C17.714 10.9428 17.6908 11.0066 17.6714 11.0717L17.6181 11.2501H10.5418C10.3429 11.2501 10.1521 11.3291 10.0115 11.4698C9.87083 11.6104 9.79182 11.8012 9.79182 12.0001C9.79182 12.199 9.87083 12.3898 10.0115 12.5304C10.1521 12.6711 10.3429 12.7501 10.5418 12.7501H17.6181L17.6714 12.9286C17.6908 12.9936 17.714 13.0575 17.7408 13.1198L17.7414 13.1211L20.1302 18.4885L20.1311 18.4905C20.2327 18.7243 20.2604 18.9835 20.2104 19.2335C20.1605 19.4835 20.0353 19.7122 19.8517 19.889C19.6681 20.0659 19.4348 20.1823 19.1831 20.2228C18.9314 20.2633 18.6734 20.2258 18.4436 20.1155L4.44001 13.1137Z" fill="#272727"/>
</svg>
