<svg width="24" height="24" viewBox="0 0 24 24" fill="none" xmlns="http://www.w3.org/2000/svg">
<path d="M17.0979 22.0373C16.0447 22.0373 14.9357 21.7856 13.7894 21.301C12.671 20.8257 11.5433 20.1733 10.4436 19.3812C9.35322 18.5797 8.30009 17.685 7.30289 16.7064C6.315 15.7092 5.42032 14.6561 4.62815 13.575C3.82665 12.4567 3.1836 11.3383 2.72693 10.2572C2.24231 9.10158 2 7.98322 2 6.9301C2 6.20317 2.13048 5.51351 2.38211 4.87046C2.64306 4.20876 3.06244 3.59366 3.63094 3.06244C4.34856 2.35415 5.16869 2 6.04473 2C6.4082 2 6.78099 2.08388 7.09786 2.23299C7.46132 2.40075 7.76887 2.65238 7.99254 2.98788L10.1547 6.03541C10.3504 6.30569 10.4995 6.56664 10.602 6.82759C10.7232 7.10718 10.7884 7.38677 10.7884 7.65704C10.7884 8.01118 10.6859 8.35601 10.4902 8.6822C10.3504 8.93383 10.1361 9.2041 9.8658 9.47437L9.23206 10.1361C9.24138 10.164 9.2507 10.1827 9.26002 10.2013C9.37185 10.397 9.59553 10.7325 10.0242 11.2358C10.4809 11.7577 10.9096 12.233 11.3383 12.671C11.8882 13.2116 12.3448 13.6403 12.7735 13.9944C13.3048 14.4418 13.6496 14.6654 13.8546 14.7679L13.836 14.8145L14.5163 14.1435C14.8052 13.8546 15.0848 13.6403 15.3551 13.5005C15.8677 13.1836 16.52 13.1277 17.1724 13.3979C17.4147 13.5005 17.6757 13.6403 17.9553 13.836L21.0494 16.0354C21.3942 16.2684 21.6459 16.5666 21.795 16.9208C21.9348 17.2749 22 17.6011 22 17.9273C22 18.3747 21.8975 18.822 21.7018 19.2414C21.5061 19.6608 21.2637 20.0242 20.9562 20.3597C20.425 20.9469 19.8472 21.3663 19.1761 21.6365C18.5331 21.8975 17.8341 22.0373 17.0979 22.0373ZM6.04473 3.39795C5.53215 3.39795 5.05685 3.62162 4.60019 4.06897C4.17148 4.46971 3.87325 4.90774 3.68686 5.38304C3.49115 5.86766 3.39795 6.38024 3.39795 6.9301C3.39795 7.79683 3.60298 8.73812 4.01305 9.70736C4.43243 10.6952 5.01957 11.7204 5.76514 12.7456C6.51072 13.7707 7.35881 14.7679 8.29077 15.7092C9.22274 16.6319 10.2293 17.4893 11.2637 18.2442C12.2703 18.9804 13.3048 19.5769 14.3299 20.0056C15.9236 20.6859 17.4147 20.8444 18.6449 20.3318C19.1202 20.1361 19.5396 19.8378 19.9217 19.4091C20.1361 19.1761 20.3038 18.9245 20.4436 18.6263C20.5555 18.3933 20.6114 18.151 20.6114 17.9087C20.6114 17.7596 20.5834 17.6104 20.5089 17.4427C20.4809 17.3868 20.425 17.2843 20.2479 17.1631L17.1538 14.9637C16.9674 14.8332 16.7996 14.74 16.6412 14.6747C16.4362 14.5909 16.3523 14.507 16.0354 14.7027C15.849 14.7959 15.6813 14.9357 15.4949 15.1221L14.7866 15.8211C14.4231 16.1752 13.8639 16.2591 13.4352 16.1007L13.1836 15.9888C12.8015 15.7838 12.3541 15.4669 11.8602 15.0475C11.4129 14.6654 10.9282 14.2181 10.3411 13.6403C9.88444 13.1743 9.42777 12.6803 8.95247 12.1305C8.51445 11.6179 8.19758 11.1799 8.00186 10.8164L7.89003 10.5368C7.83411 10.3225 7.81547 10.2013 7.81547 10.0708C7.81547 9.73532 7.93663 9.43709 8.16962 9.2041L8.86859 8.47717C9.05499 8.29077 9.19478 8.1137 9.28798 7.95527C9.36253 7.83411 9.39049 7.73159 9.39049 7.6384C9.39049 7.56384 9.36254 7.452 9.31594 7.34017C9.2507 7.19105 9.14818 7.0233 9.01771 6.84623L6.85555 3.78938C6.76235 3.6589 6.65051 3.5657 6.51072 3.50047C6.3616 3.43523 6.20317 3.39795 6.04473 3.39795ZM13.836 14.8239L13.6869 15.4576L13.9385 14.8052C13.8919 14.7959 13.8546 14.8052 13.836 14.8239Z" fill="#272727"/>
</svg>
