<svg width="24" height="24" viewBox="0 0 24 24" fill="#6E7072" xmlns="http://www.w3.org/2000/svg">
<path fill-rule="evenodd" clip-rule="evenodd" d="M18.8171 4.48308C17.6177 3.35453 16.4373 2.87742 15.2705 3.02661C14.1431 3.17079 13.22 3.87982 12.4685 4.6737L11.1069 6.11485C11.1011 6.1208 11.0954 6.12684 11.0898 6.13298L4.25797 13.3642L4.25651 13.3658C4.02853 13.6085 3.83588 13.9295 3.69468 14.2323C3.55297 14.5362 3.43289 14.8865 3.38973 15.2102L3.38799 15.2242L3.01799 18.4642L3.01773 18.4665C2.93057 19.251 3.16586 19.9873 3.69831 20.4923C4.23151 20.9979 4.98001 21.193 5.76058 21.0584L8.97942 20.5086L8.98442 20.5077C9.30921 20.45 9.65518 20.3131 9.95427 20.1532C10.2496 19.9953 10.5611 19.782 10.7924 19.5301L17.5288 12.3998C17.6078 12.3434 17.6757 12.2719 17.728 12.189L18.9978 10.8449L18.295 9.37062C18.2948 9.37079 18.2951 9.37046 18.295 9.37062L18.9978 10.8449C19.7489 10.0514 20.4081 9.0891 20.4876 7.95285C20.5698 6.77697 20.0219 5.62248 18.8185 4.48439L18.8171 4.48308ZM15.9855 4.52597C15.7955 4.49434 15.621 4.49401 15.4608 4.5145C14.8484 4.59281 14.2265 4.99863 13.5582 5.70451L12.4511 6.87629C12.9281 9.00091 14.6451 10.6248 16.7949 10.9924L17.908 9.81425C18.0504 9.6638 18.1798 9.51568 18.295 9.37062L15.9855 4.52597C15.9855 4.52598 15.9854 4.52596 15.9855 4.52597ZM15.6117 12.2448C13.6133 11.609 12.0077 10.0932 11.2652 8.13153L5.34978 14.3928C5.26781 14.4803 5.15521 14.6495 5.05412 14.8663C4.95486 15.0791 4.89524 15.2761 4.87736 15.4026L4.50856 18.6321L4.50845 18.6332C4.46594 19.0181 4.58557 19.2664 4.73048 19.4039C4.87478 19.5407 5.12628 19.6456 5.50572 19.5802L5.50687 19.58L8.72398 19.0305C8.84925 19.0079 9.04227 18.9399 9.24703 18.8304C9.45461 18.7194 9.61076 18.5997 9.68893 18.514L9.69789 18.5042L15.6117 12.2448ZM15.9855 4.52597L18.295 9.37062C18.7201 8.83482 18.9573 8.3329 18.9912 7.84826C19.0315 7.2718 18.7945 6.52654 17.7886 5.575C17.068 4.89711 16.475 4.60751 15.9855 4.52597Z"/>
</svg>
