<svg width="24" height="24" viewBox="0 0 24 24" fill="none" xmlns="http://www.w3.org/2000/svg">
<path d="M7 17.75H5C2.58 17.75 1.25 16.42 1.25 14V9.99999C1.25 7.57999 2.58 6.24999 5 6.24999H6.43C6.66 6.24999 6.89 6.17999 7.09 6.05999L10.01 4.22999C11.47 3.31999 12.89 3.14999 14.01 3.76999C15.13 4.38999 15.74 5.67999 15.74 7.40999V8.36999C15.74 8.77999 15.4 9.11999 14.99 9.11999C14.58 9.11999 14.24 8.77999 14.24 8.36999V7.40999C14.24 6.26999 13.89 5.41999 13.28 5.08999C12.67 4.74999 11.77 4.89999 10.8 5.50999L7.88 7.32999C7.45 7.60999 6.94 7.74999 6.43 7.74999H5C3.42 7.74999 2.75 8.41999 2.75 9.99999V14C2.75 15.58 3.42 16.25 5 16.25H7C7.41 16.25 7.75 16.59 7.75 17C7.75 17.41 7.41 17.75 7 17.75Z" fill="#272727"/>
<path d="M12.55 20.59C11.76 20.59 10.89 20.31 10.02 19.76C9.66997 19.54 9.55997 19.08 9.77997 18.73C9.99997 18.38 10.46 18.27 10.81 18.49C11.78 19.09 12.68 19.25 13.29 18.91C13.9 18.57 14.25 17.72 14.25 16.59V12.95C14.25 12.54 14.59 12.2 15 12.2C15.41 12.2 15.75 12.54 15.75 12.95V16.59C15.75 18.31 15.13 19.61 14.02 20.23C13.57 20.47 13.07 20.59 12.55 20.59Z" fill="#272727"/>
<path d="M18 16.75C17.84 16.75 17.69 16.7 17.55 16.6C17.22 16.35 17.15 15.88 17.4 15.55C18.66 13.87 18.93 11.64 18.12 9.71C17.96 9.33 18.14 8.89 18.52 8.73C18.9 8.57 19.34 8.75 19.5 9.13C20.52 11.55 20.17 14.36 18.6 16.46C18.45 16.65 18.23 16.75 18 16.75Z" fill="#272727"/>
<path d="M19.83 19.25C19.67 19.25 19.52 19.2 19.38 19.1C19.05 18.85 18.98 18.38 19.23 18.05C21.37 15.2 21.84 11.38 20.46 8.09C20.3 7.71 20.48 7.27 20.86 7.11C21.25 6.95 21.68 7.13 21.84 7.51C23.43 11.29 22.89 15.67 20.43 18.95C20.29 19.15 20.06 19.25 19.83 19.25Z" fill="#272727"/>
<path d="M1.99994 22.75C1.80994 22.75 1.61994 22.68 1.46994 22.53C1.17994 22.24 1.17994 21.76 1.46994 21.47L21.4699 1.47C21.7599 1.18 22.2399 1.18 22.5299 1.47C22.8199 1.76 22.8199 2.24 22.5299 2.53L2.52994 22.53C2.37994 22.68 2.18994 22.75 1.99994 22.75Z" fill="#272727"/>
</svg>
