<svg width="24" height="24" viewBox="0 0 24 24" fill="none" xmlns="http://www.w3.org/2000/svg">
<path d="M12.0637 15.0105C10.1405 15.0105 8.57702 13.447 8.57702 11.5238V7.48666C8.57702 5.56349 10.1405 4 12.0637 4C13.9868 4 15.5503 5.56349 15.5503 7.48666V11.5238C15.5503 13.447 13.9868 15.0105 12.0637 15.0105ZM12.0637 5.10105C10.7498 5.10105 9.67807 6.17274 9.67807 7.48666V11.5238C9.67807 12.8378 10.7498 13.9095 12.0637 13.9095C13.3776 13.9095 14.4493 12.8378 14.4493 11.5238V7.48666C14.4493 6.17274 13.3776 5.10105 12.0637 5.10105Z" fill="#272727"/>
<path d="M12.0637 17.5796C8.66509 17.5796 5.89778 14.8123 5.89778 11.4137V10.1659C5.89778 9.86492 6.14735 9.61535 6.4483 9.61535C6.74926 9.61535 6.99883 9.86492 6.99883 10.1659V11.4137C6.99883 14.2031 9.27433 16.4786 12.0637 16.4786C14.853 16.4786 17.1285 14.2031 17.1285 11.4137V10.1659C17.1285 9.86492 17.3781 9.61535 17.679 9.61535C17.98 9.61535 18.2296 9.86492 18.2296 10.1659V11.4137C18.2296 14.8123 15.4623 17.5796 12.0637 17.5796Z" fill="#272727"/>
<path d="M13.084 8.35283C13.0253 8.35283 12.9592 8.34549 12.8931 8.32347C12.3573 8.12528 11.7701 8.12528 11.2342 8.32347C10.9479 8.42623 10.6323 8.27943 10.5295 7.99315C10.4268 7.70688 10.5736 7.39124 10.8599 7.28848C11.6379 7.00955 12.4968 7.00955 13.2748 7.28848C13.5611 7.39124 13.7079 7.70688 13.6051 7.99315C13.5171 8.21336 13.3042 8.35283 13.084 8.35283Z" fill="#272727"/>
<path d="M12.6509 9.90898C12.5995 9.90898 12.5555 9.90164 12.5041 9.88696C12.2105 9.80622 11.9095 9.80622 11.6159 9.88696C11.3223 9.9677 11.0214 9.79153 10.9406 9.49792C10.8599 9.21165 11.036 8.91069 11.3296 8.82995C11.8068 8.69782 12.3206 8.69782 12.7977 8.82995C13.0913 8.91069 13.2675 9.21165 13.1868 9.50526C13.1207 9.74749 12.8931 9.90898 12.6509 9.90898Z" fill="#272727"/>
<path d="M12.0637 19.7817C11.7627 19.7817 11.5132 19.5322 11.5132 19.2312V17.0291C11.5132 16.7281 11.7627 16.4786 12.0637 16.4786C12.3646 16.4786 12.6142 16.7281 12.6142 17.0291V19.2312C12.6142 19.5322 12.3646 19.7817 12.0637 19.7817Z" fill="#272727"/>
<path fill-rule="evenodd" clip-rule="evenodd" d="M17.598 6.72099C17.8986 6.72099 18.1422 6.96463 18.1422 7.26519V8.35358C18.1422 8.65413 17.8986 8.89778 17.598 8.89778C17.2975 8.89778 17.0538 8.65413 17.0538 8.35358V7.26519C17.0538 6.96463 17.2975 6.72099 17.598 6.72099Z" fill="#272727"/>
<path fill-rule="evenodd" clip-rule="evenodd" d="M20.8632 6.17679C21.1638 6.17679 21.4074 6.42044 21.4074 6.72099V8.89778C21.4074 9.19833 21.1638 9.44198 20.8632 9.44198C20.5627 9.44198 20.319 9.19833 20.319 8.89778V6.72099C20.319 6.42044 20.5627 6.17679 20.8632 6.17679Z" fill="#272727"/>
<path fill-rule="evenodd" clip-rule="evenodd" d="M22.4958 4.5442C22.7964 4.5442 23.04 4.78784 23.04 5.0884V10.5304C23.04 10.8309 22.7964 11.0746 22.4958 11.0746C22.1953 11.0746 21.9516 10.8309 21.9516 10.5304V5.0884C21.9516 4.78784 22.1953 4.5442 22.4958 4.5442Z" fill="#272727"/>
<path fill-rule="evenodd" clip-rule="evenodd" d="M19.2306 5.0884C19.5312 5.0884 19.7748 5.33204 19.7748 5.63259V9.98617C19.7748 10.2867 19.5312 10.5304 19.2306 10.5304C18.9301 10.5304 18.6864 10.2867 18.6864 9.98617V5.63259C18.6864 5.33204 18.9301 5.0884 19.2306 5.0884Z" fill="#272727"/>
<path fill-rule="evenodd" clip-rule="evenodd" d="M6.44198 6.72099C6.74253 6.72099 6.98617 6.96463 6.98617 7.26519V8.35358C6.98617 8.65413 6.74253 8.89778 6.44198 8.89778C6.14142 8.89778 5.89778 8.65413 5.89778 8.35358V7.26519C5.89778 6.96463 6.14142 6.72099 6.44198 6.72099Z" fill="#272727"/>
<path fill-rule="evenodd" clip-rule="evenodd" d="M3.17679 6.17679C3.47734 6.17679 3.72099 6.42044 3.72099 6.72099V8.89778C3.72099 9.19833 3.47734 9.44198 3.17679 9.44198C2.87624 9.44198 2.63259 9.19833 2.63259 8.89778V6.72099C2.63259 6.42044 2.87624 6.17679 3.17679 6.17679Z" fill="#272727"/>
<path fill-rule="evenodd" clip-rule="evenodd" d="M1.5442 4.5442C1.84475 4.5442 2.0884 4.78784 2.0884 5.0884L2.0884 10.5304C2.0884 10.8309 1.84475 11.0746 1.5442 11.0746C1.24365 11.0746 1 10.8309 1 10.5304L1 5.0884C1 4.78784 1.24365 4.5442 1.5442 4.5442Z" fill="#272727"/>
<path fill-rule="evenodd" clip-rule="evenodd" d="M4.80938 5.0884C5.10993 5.0884 5.35358 5.33204 5.35358 5.63259V9.98617C5.35358 10.2867 5.10993 10.5304 4.80938 10.5304C4.50883 10.5304 4.26519 10.2867 4.26519 9.98617V5.63259C4.26519 5.33204 4.50883 5.0884 4.80938 5.0884Z" fill="#272727"/>
</svg>
