<svg width="24" height="24" viewBox="0 0 24 24" fill="none" xmlns="http://www.w3.org/2000/svg">
<path d="M2.70202 22C2.51606 22 2.33937 21.9256 2.2092 21.7954C2.03253 21.6188 1.9582 21.3584 2.02328 21.1167L3.19484 16.7373C2.41381 15.2868 2.00467 13.6504 2.00467 11.9954C2.00467 6.48163 6.4863 2 12 2C17.5137 2 21.9953 6.48163 21.9953 11.9954C21.9953 17.5091 17.5137 21.9907 12 21.9907C10.317 21.9907 8.67136 21.5723 7.20228 20.7727L2.88799 21.9721C2.8229 21.9907 2.7671 22 2.70202 22ZM7.29523 19.3315C7.4161 19.3315 7.53699 19.3687 7.64856 19.4245C8.95958 20.1962 10.4658 20.6053 12 20.6053C16.742 20.6053 20.6006 16.7466 20.6006 12.0047C20.6006 7.26268 16.742 3.40401 12 3.40401C7.25804 3.40401 3.39937 7.26268 3.39937 12.0047C3.39937 13.5202 3.79917 14.9986 4.55231 16.3003C4.64529 16.4584 4.6732 16.6537 4.62671 16.8303L3.69691 20.3078L7.11857 19.3594C7.17436 19.3408 7.23944 19.3315 7.29523 19.3315Z" fill="#272727"/>
<path d="M14.5475 17.3604C13.9711 17.3604 13.376 17.2301 12.753 16.9605C12.1672 16.7094 11.5815 16.3747 11.0143 15.9563C10.4564 15.5472 9.90785 15.0823 9.40576 14.5802C8.90367 14.0688 8.43873 13.5296 8.02962 12.9717C7.61121 12.386 7.27647 11.8094 7.03473 11.2422C6.77438 10.6286 6.64423 10.0242 6.64423 9.44774C6.64423 9.03863 6.7186 8.64811 6.85806 8.28549C7.00683 7.90427 7.24859 7.56025 7.56472 7.26271C8.15979 6.67694 9.01525 6.4631 9.694 6.78853C9.92645 6.89081 10.1217 7.05818 10.2705 7.28133L11.349 8.79687C11.4606 8.94564 11.5443 9.10371 11.6094 9.26177C11.6838 9.44773 11.7302 9.63372 11.7302 9.81038C11.7302 10.0521 11.6652 10.2939 11.535 10.5078C11.4513 10.6472 11.3304 10.8146 11.1724 10.9727L11.0515 11.1027C11.1073 11.1771 11.1724 11.2701 11.2746 11.3817C11.4699 11.6048 11.6838 11.8466 11.9162 12.079C12.1487 12.3022 12.3811 12.5253 12.6136 12.7206C12.7251 12.8136 12.8181 12.888 12.8925 12.9345L13.0227 12.8043C13.19 12.6369 13.3574 12.5068 13.5248 12.4232C13.8316 12.2279 14.3058 12.1813 14.7242 12.358C14.873 12.4138 15.0217 12.4974 15.1798 12.609L16.7326 13.7062C16.9464 13.855 17.1138 14.0595 17.2254 14.292C17.3183 14.5244 17.3555 14.729 17.3555 14.9428C17.3555 15.2218 17.2904 15.4914 17.1696 15.7517C17.0487 15.9935 16.9092 16.2074 16.7419 16.4027C16.4443 16.7281 16.1003 16.9699 15.7284 17.1279C15.3565 17.286 14.9566 17.3604 14.5475 17.3604ZM9.01521 8.04374C8.95942 8.04374 8.77351 8.04374 8.54106 8.27619C8.3644 8.44355 8.24349 8.62023 8.15981 8.81549C8.07613 9.01075 8.03893 9.2339 8.03893 9.45705C8.03893 9.84756 8.1319 10.2659 8.31786 10.7122C8.51312 11.1771 8.80137 11.67 9.1547 12.1628C9.51732 12.6556 9.92644 13.1483 10.382 13.6039C10.8376 14.0502 11.3211 14.4686 11.8232 14.8405C12.3067 15.1939 12.7995 15.4728 13.2923 15.6867C13.999 15.9935 14.6498 16.0679 15.1798 15.8447C15.3658 15.7703 15.5331 15.6403 15.7005 15.4729C15.7842 15.3799 15.8493 15.2868 15.905 15.166C15.9329 15.1009 15.9515 15.0265 15.9515 14.9614C15.9515 14.9428 15.9515 14.9149 15.9236 14.8591L14.3709 13.7806C14.3058 13.7341 14.2407 13.6969 14.1849 13.6783C14.1477 13.6969 14.0919 13.7248 13.9897 13.8271L13.6363 14.1804C13.3667 14.45 12.939 14.5244 12.595 14.4035L12.4276 14.3292C12.2137 14.2176 11.972 14.0503 11.7023 13.8179C11.442 13.5947 11.191 13.3622 10.9213 13.1018C10.661 12.8322 10.4285 12.5811 10.2054 12.3208C9.96363 12.0325 9.79627 11.8001 9.68469 11.6048L9.58242 11.3631C9.55453 11.2701 9.5452 11.1678 9.5452 11.0749C9.5452 10.8145 9.63821 10.5821 9.81487 10.3961L10.1682 10.0335C10.2705 9.93125 10.3076 9.87547 10.3262 9.83828C10.2984 9.77319 10.2612 9.71738 10.2147 9.6523L9.12678 8.11814L9.01521 8.04374Z" fill="#272727"/>
</svg>
