<svg width="24" height="24" viewBox="0 0 24 24" fill="none" xmlns="http://www.w3.org/2000/svg">
<path d="M2 18.0999C4.2 18.2999 6.3 17.5999 7.9 16.2009C6.7 16.0999 4.3 13.8009 3.9 13.3009H5.5C3.6 12.8009 2.3 11.1009 2.3 9.2009C2.9 9.2999 3.5 9.4999 4 9.6999H4.2C2.7 8.2999 2.2 5.9999 3.1 4.0999C5.2 6.6999 8.4 8.2999 11.7 8.4999V7.3999C11.8 5.1999 13.7 3.3999 15.9 3.3999C16.8 3.3999 17.6 3.6999 18.3 4.1999C18.7 4.4999 19.1 4.4999 19.5 4.3999L21.4 3.6999C21 4.5999 20.5 5.2999 19.8 5.9999C20.401 5.8999 21.1 5.5999 21.7 5.4999L22 5.6999C21.4 6.1999 20.8 6.7999 20.3 7.1999C20.2 7.4999 20.1 7.8999 20.1 8.2999C20.1 10.1999 19.6 12.0999 18.8 13.9009C17.8703 15.6122 16.5375 17.071 14.9171 18.1512C13.2966 19.2313 11.4372 19.9002 9.5 20.0999C7.1 20.2999 4.6 19.9009 2.5 18.7999L2 18.0999Z" fill="#333333"/>
</svg>
