<svg width="24" height="24" viewBox="0 0 24 24" fill="none" xmlns="http://www.w3.org/2000/svg">
<path d="M12.0001 22.75C6.80008 22.75 2.58008 18.52 2.58008 13.33C2.58008 8.13999 6.80008 3.89999 12.0001 3.89999C13.0701 3.89999 14.1101 4.04999 15.1101 4.35999C15.5101 4.47999 15.7301 4.89999 15.6101 5.29999C15.4901 5.69999 15.0701 5.91999 14.6701 5.79999C13.8201 5.53999 12.9201 5.39999 12.0001 5.39999C7.63008 5.39999 4.08008 8.94999 4.08008 13.32C4.08008 17.69 7.63008 21.24 12.0001 21.24C16.3701 21.24 19.9201 17.69 19.9201 13.32C19.9201 11.74 19.4601 10.22 18.5901 8.91999C18.3601 8.57999 18.4501 8.10999 18.8001 7.87999C19.1401 7.64999 19.6101 7.73999 19.8401 8.08999C20.8801 9.63999 21.4301 11.45 21.4301 13.33C21.4201 18.52 17.2001 22.75 12.0001 22.75Z" fill="#292D32"/>
<path d="M16.13 6.06999C15.92 6.06999 15.71 5.97999 15.56 5.80999L12.67 2.49C12.4 2.18 12.43 1.69999 12.74 1.42999C13.05 1.15999 13.53 1.18999 13.8 1.49999L16.69 4.82C16.96 5.13 16.93 5.60999 16.62 5.87999C16.49 6.00999 16.31 6.06999 16.13 6.06999Z" fill="#292D32"/>
<path d="M12.7602 8.52999C12.5302 8.52999 12.3002 8.41999 12.1502 8.21999C11.9102 7.88999 11.9802 7.41999 12.3102 7.16999L15.6802 4.70999C16.0102 4.45999 16.4802 4.53999 16.7302 4.86999C16.9802 5.19999 16.9002 5.66999 16.5702 5.91999L13.2002 8.38999C13.0702 8.48999 12.9202 8.52999 12.7602 8.52999Z" fill="#292D32"/>
</svg>
