<svg width="175" height="26" viewBox="0 0 175 26" fill="none" xmlns="http://www.w3.org/2000/svg">
<path d="M16.864 5.32C17.2053 6.472 17.568 7.67733 17.952 8.936C18.336 10.1733 18.7307 11.4213 19.136 12.68C19.5627 13.9173 19.9787 15.144 20.384 16.36C20.8107 17.5547 21.216 18.6853 21.6 19.752C21.92 18.6 22.2293 17.352 22.528 16.008C22.8267 14.6427 23.1253 13.2347 23.424 11.784C23.7227 10.312 24.0107 8.81867 24.288 7.304C24.5867 5.78933 24.864 4.296 25.12 2.824H29.28C28.5333 6.83467 27.7013 10.696 26.784 14.408C25.8667 18.0987 24.8427 21.6293 23.712 25H19.872C18.208 20.6907 16.5973 15.9867 15.04 10.888C14.2507 13.4693 13.4507 15.9227 12.64 18.248C11.8293 20.5733 11.0187 22.824 10.208 25H6.368C5.216 21.6293 4.18133 18.0987 3.264 14.408C2.368 10.696 1.54667 6.83467 0.8 2.824H5.12C5.376 4.27467 5.64267 5.75733 5.92 7.272C6.21867 8.78667 6.51733 10.28 6.816 11.752C7.136 13.2027 7.456 14.6107 7.776 15.976C8.096 17.3413 8.416 18.6 8.736 19.752C9.14133 18.664 9.54667 17.5227 9.952 16.328C10.3787 15.112 10.7947 13.8853 11.2 12.648C11.6053 11.3893 11.9893 10.1413 12.352 8.904C12.736 7.66667 13.088 6.472 13.408 5.32H16.864ZM37.5395 22.28C38.7342 22.28 39.6408 22.216 40.2595 22.088V17.8C40.0462 17.736 39.7368 17.672 39.3315 17.608C38.9262 17.544 38.4782 17.512 37.9875 17.512C37.5608 17.512 37.1235 17.544 36.6755 17.608C36.2488 17.672 35.8542 17.7893 35.4915 17.96C35.1502 18.1307 34.8728 18.376 34.6595 18.696C34.4462 18.9947 34.3395 19.3787 34.3395 19.848C34.3395 20.7653 34.6275 21.4053 35.2035 21.768C35.7795 22.1093 36.5582 22.28 37.5395 22.28ZM37.2195 7.848C38.4995 7.848 39.5768 8.008 40.4515 8.328C41.3262 8.648 42.0195 9.096 42.5315 9.672C43.0648 10.248 43.4382 10.952 43.6515 11.784C43.8862 12.5947 44.0035 13.4907 44.0035 14.472V24.616C43.4062 24.744 42.4995 24.8933 41.2835 25.064C40.0888 25.256 38.7342 25.352 37.2195 25.352C36.2168 25.352 35.2995 25.256 34.4675 25.064C33.6355 24.872 32.9208 24.5627 32.3235 24.136C31.7475 23.7093 31.2888 23.1547 30.9475 22.472C30.6275 21.7893 30.4675 20.9467 30.4675 19.944C30.4675 18.984 30.6488 18.1733 31.0115 17.512C31.3955 16.8507 31.9075 16.3173 32.5475 15.912C33.1875 15.4853 33.9235 15.1867 34.7555 15.016C35.6088 14.824 36.4942 14.728 37.4115 14.728C37.8382 14.728 38.2862 14.76 38.7555 14.824C39.2248 14.8667 39.7262 14.952 40.2595 15.08V14.44C40.2595 13.992 40.2062 13.5653 40.0995 13.16C39.9928 12.7547 39.8008 12.4027 39.5235 12.104C39.2675 11.784 38.9155 11.5387 38.4675 11.368C38.0408 11.1973 37.4968 11.112 36.8355 11.112C35.9395 11.112 35.1182 11.176 34.3715 11.304C33.6248 11.432 33.0168 11.5813 32.5475 11.752L32.0675 8.616C32.5582 8.44533 33.2728 8.27467 34.2115 8.104C35.1502 7.93333 36.1528 7.848 37.2195 7.848ZM48.5533 3.848L52.4253 3.208V8.264H58.3773V11.496H52.4253V18.312C52.4253 19.656 52.6386 20.616 53.0653 21.192C53.4919 21.768 54.2173 22.056 55.2413 22.056C55.9453 22.056 56.5639 21.9813 57.0973 21.832C57.6519 21.6827 58.0893 21.544 58.4093 21.416L59.0493 24.488C58.6013 24.68 58.0146 24.872 57.2893 25.064C56.5639 25.2773 55.7106 25.384 54.7292 25.384C53.5346 25.384 52.5319 25.224 51.7213 24.904C50.9319 24.584 50.3026 24.1253 49.8333 23.528C49.3639 22.9093 49.0333 22.1733 48.8413 21.32C48.6493 20.4453 48.5533 19.4533 48.5533 18.344V3.848ZM60.911 16.712C60.911 15.24 61.1243 13.9493 61.551 12.84C61.999 11.7307 62.5857 10.8133 63.311 10.088C64.0363 9.34133 64.8683 8.78667 65.807 8.424C66.7457 8.04 67.7057 7.848 68.687 7.848C70.991 7.848 72.783 8.56267 74.063 9.992C75.3643 11.4213 76.015 13.5547 76.015 16.392C76.015 16.6053 76.0043 16.8507 75.983 17.128C75.983 17.384 75.9723 17.6187 75.951 17.832H64.911C65.0177 19.176 65.487 20.2213 66.319 20.968C67.1723 21.6933 68.399 22.056 69.999 22.056C70.9377 22.056 71.791 21.9707 72.559 21.8C73.3483 21.6293 73.967 21.448 74.415 21.256L74.927 24.424C74.7137 24.5307 74.415 24.648 74.031 24.776C73.6683 24.8827 73.2417 24.9787 72.751 25.064C72.2817 25.1707 71.7697 25.256 71.215 25.32C70.6603 25.384 70.095 25.416 69.519 25.416C68.047 25.416 66.767 25.2027 65.679 24.776C64.591 24.328 63.695 23.72 62.991 22.952C62.287 22.1627 61.7643 21.2453 61.423 20.2C61.0817 19.1333 60.911 17.9707 60.911 16.712ZM72.143 14.984C72.143 14.4507 72.0683 13.9493 71.919 13.48C71.7697 12.9893 71.5457 12.5733 71.247 12.232C70.9697 11.8693 70.6177 11.592 70.191 11.4C69.7857 11.1867 69.295 11.08 68.719 11.08C68.1217 11.08 67.599 11.1973 67.151 11.432C66.703 11.6453 66.319 11.9333 65.999 12.296C65.7003 12.6587 65.4657 13.0747 65.295 13.544C65.1243 14.0133 65.007 14.4933 64.943 14.984H72.143ZM89.6563 11.752C89.3363 11.6453 88.8883 11.5387 88.3123 11.432C87.7576 11.304 87.1069 11.24 86.3603 11.24C85.9336 11.24 85.4749 11.2827 84.9843 11.368C84.5149 11.4533 84.1843 11.528 83.9923 11.592V25H80.1203V9.064C80.8669 8.78667 81.7949 8.53067 82.9043 8.296C84.0349 8.04 85.2829 7.912 86.6483 7.912C86.9043 7.912 87.2029 7.93333 87.5443 7.976C87.8856 7.99733 88.2269 8.04 88.5683 8.104C88.9096 8.14667 89.2403 8.21067 89.5603 8.296C89.8803 8.36 90.1363 8.424 90.3283 8.488L89.6563 11.752ZM106.275 5.544C107.299 8.97867 108.323 12.0933 109.347 14.888C110.392 17.6613 111.405 20.2107 112.387 22.536C113.133 20.0187 113.869 17.0533 114.595 13.64C115.341 10.2267 116.056 6.62133 116.739 2.824H118.883C118.499 5.10667 118.104 7.25067 117.699 9.256C117.315 11.24 116.909 13.1387 116.483 14.952C116.056 16.744 115.608 18.472 115.139 20.136C114.669 21.7787 114.157 23.4 113.603 25H111.267C110.755 23.784 110.243 22.568 109.731 21.352C109.24 20.136 108.749 18.888 108.259 17.608C107.768 16.3067 107.277 14.952 106.787 13.544C106.296 12.136 105.795 10.6427 105.283 9.064C104.771 10.6427 104.259 12.136 103.747 13.544C103.256 14.952 102.765 16.3067 102.275 17.608C101.784 18.888 101.283 20.136 100.771 21.352C100.28 22.568 99.7785 23.784 99.2665 25H96.9625C96.3865 23.4 95.8532 21.7787 95.3625 20.136C94.8932 18.472 94.4452 16.744 94.0185 14.952C93.6132 13.1387 93.2185 11.24 92.8345 9.256C92.4718 7.25067 92.0985 5.10667 91.7145 2.824H93.9545C94.2745 4.70133 94.6052 6.54667 94.9465 8.36C95.2878 10.152 95.6398 11.8907 96.0025 13.576C96.3865 15.2613 96.7705 16.8613 97.1545 18.376C97.5598 19.8693 97.9545 21.256 98.3385 22.536C99.2558 20.168 100.237 17.608 101.283 14.856C102.328 12.0827 103.363 8.97867 104.387 5.544H106.275ZM136.552 16.744C136.552 18.0453 136.36 19.2293 135.976 20.296C135.613 21.3627 135.09 22.2693 134.408 23.016C133.746 23.7627 132.957 24.3493 132.04 24.776C131.122 25.1813 130.109 25.384 129 25.384C127.89 25.384 126.877 25.1813 125.96 24.776C125.042 24.3493 124.242 23.7627 123.56 23.016C122.898 22.2693 122.376 21.3627 121.992 20.296C121.629 19.2293 121.448 18.0453 121.448 16.744C121.448 15.4427 121.629 14.2587 121.992 13.192C122.376 12.1253 122.898 11.2187 123.56 10.472C124.242 9.704 125.042 9.11733 125.96 8.712C126.877 8.28533 127.89 8.072 129 8.072C130.109 8.072 131.122 8.28533 132.04 8.712C132.957 9.11733 133.746 9.704 134.408 10.472C135.09 11.2187 135.613 12.1253 135.976 13.192C136.36 14.2587 136.552 15.4427 136.552 16.744ZM134.344 16.744C134.344 14.6747 133.864 13.032 132.904 11.816C131.944 10.5787 130.642 9.96 129 9.96C127.357 9.96 126.056 10.5787 125.096 11.816C124.136 13.032 123.656 14.6747 123.656 16.744C123.656 18.8133 124.136 20.456 125.096 21.672C126.056 22.888 127.357 23.496 129 23.496C130.642 23.496 131.944 22.888 132.904 21.672C133.864 20.456 134.344 18.8133 134.344 16.744ZM146.697 8.136C147.379 8.136 148.019 8.18933 148.617 8.296C149.235 8.40267 149.662 8.50933 149.897 8.616L149.481 10.408C149.31 10.3227 148.958 10.2373 148.425 10.152C147.913 10.0453 147.23 9.992 146.377 9.992C145.481 9.992 144.755 10.056 144.201 10.184C143.667 10.312 143.315 10.4187 143.145 10.504V25H141.065V9.224C141.598 8.98933 142.334 8.75467 143.273 8.52C144.211 8.264 145.353 8.136 146.697 8.136ZM157.225 25.288C156.521 25.2667 155.903 25.1707 155.369 25C154.857 24.8507 154.42 24.616 154.057 24.296C153.716 23.9547 153.449 23.528 153.257 23.016C153.087 22.4827 153.001 21.8213 153.001 21.032V0.551998L155.081 0.167999V20.968C155.081 21.48 155.124 21.896 155.209 22.216C155.316 22.5147 155.465 22.76 155.657 22.952C155.849 23.1227 156.095 23.2507 156.393 23.336C156.713 23.4213 157.087 23.496 157.513 23.56L157.225 25.288ZM174.342 24.488C173.723 24.7013 172.934 24.904 171.974 25.096C171.014 25.288 169.798 25.384 168.326 25.384C167.11 25.384 166 25.192 164.998 24.808C164.016 24.4027 163.163 23.8267 162.438 23.08C161.734 22.3333 161.179 21.4267 160.774 20.36C160.39 19.2933 160.198 18.088 160.198 16.744C160.198 15.4853 160.358 14.3333 160.678 13.288C161.019 12.2213 161.51 11.304 162.15 10.536C162.79 9.768 163.568 9.17067 164.486 8.744C165.424 8.31733 166.491 8.104 167.686 8.104C168.774 8.104 169.712 8.264 170.502 8.584C171.312 8.88267 171.899 9.17067 172.262 9.448V0.551998L174.342 0.167999V24.488ZM172.262 11.464C172.07 11.3147 171.824 11.1547 171.526 10.984C171.248 10.8133 170.918 10.6533 170.534 10.504C170.15 10.3547 169.734 10.2373 169.286 10.152C168.838 10.0453 168.368 9.992 167.878 9.992C166.854 9.992 165.99 10.1733 165.286 10.536C164.603 10.8987 164.048 11.3893 163.622 12.008C163.195 12.6053 162.886 13.32 162.694 14.152C162.502 14.9627 162.406 15.8267 162.406 16.744C162.406 18.92 162.95 20.5947 164.038 21.768C165.126 22.92 166.566 23.496 168.358 23.496C169.382 23.496 170.203 23.4533 170.822 23.368C171.462 23.2613 171.942 23.1547 172.262 23.048V11.464Z" fill="#333333"/>
</svg>
