<svg width="64" height="64" viewBox="0 0 64 64" fill="none" xmlns="http://www.w3.org/2000/svg">
<path fill-rule="evenodd" clip-rule="evenodd" d="M3.33331 31.9997C3.33331 16.2284 16.2287 3.33301 32 3.33301C47.7712 3.33301 60.6666 16.2284 60.6666 31.9997C60.6666 47.7709 47.7712 60.6663 32 60.6663C16.2287 60.6663 3.33331 47.7709 3.33331 31.9997ZM32 7.33301C18.4379 7.33301 7.33331 18.4376 7.33331 31.9997C7.33331 45.5618 18.4379 56.6663 32 56.6663C45.5621 56.6663 56.6666 45.5618 56.6666 31.9997C56.6666 18.4376 45.5621 7.33301 32 7.33301Z" fill="#E3E3E3"/>
<path fill-rule="evenodd" clip-rule="evenodd" d="M32 19.333C33.1046 19.333 34 20.2284 34 21.333V34.6663C34 35.7709 33.1046 36.6663 32 36.6663C30.8954 36.6663 30 35.7709 30 34.6663V21.333C30 20.2284 30.8954 19.333 32 19.333Z" fill="#E3E3E3"/>
<path fill-rule="evenodd" clip-rule="evenodd" d="M29.3187 42.6667C29.3187 41.1939 30.5126 40 31.9853 40H32.0093C33.482 40 34.676 41.1939 34.676 42.6667C34.676 44.1394 33.482 45.3333 32.0093 45.3333H31.9853C30.5126 45.3333 29.3187 44.1394 29.3187 42.6667Z" fill="#E3E3E3"/>
</svg>
