<svg width="24" height="24" viewBox="0 0 24 24" fill="none" xmlns="http://www.w3.org/2000/svg">
<path fill-rule="evenodd" clip-rule="evenodd" d="M17.5759 16.2245L17.4351 16.4L21.3028 20.2364C21.437 20.3761 21.5119 20.5622 21.5119 20.7559C21.5119 20.9499 21.4367 21.1363 21.3023 21.276C21.2328 21.3458 21.1502 21.4011 21.0593 21.439C20.9679 21.4771 20.8699 21.4967 20.7709 21.4967C20.6719 21.4967 20.5739 21.4771 20.4825 21.439C20.3911 21.4009 20.3081 21.3451 20.2384 21.2748L16.3993 17.4357L16.2245 17.5759C14.4788 18.976 12.263 19.654 10.0327 19.4706C7.80242 19.2871 5.72719 18.2561 4.23372 16.5896C2.74026 14.923 1.94207 12.7476 2.00328 10.5107C2.06449 8.27369 2.98045 6.14519 4.56282 4.56282C6.14519 2.98045 8.27369 2.06449 10.5107 2.00328C12.7476 1.94207 14.923 2.74026 16.5896 4.23372C18.2561 5.72719 19.2871 7.80242 19.4706 10.0327C19.654 12.263 18.976 14.4788 17.5759 16.2245ZM6.74302 16.7991C7.93527 17.5957 9.33699 18.0209 10.7709 18.0209C12.6937 18.0209 14.5378 17.2571 15.8974 15.8974C17.2571 14.5378 18.0209 12.6937 18.0209 10.7709C18.0209 9.33699 17.5957 7.93527 16.7991 6.74302C16.0024 5.55076 14.8701 4.62151 13.5454 4.07277C12.2206 3.52404 10.7629 3.38046 9.3565 3.66021C7.95013 3.93995 6.65831 4.63045 5.64438 5.64438C4.63045 6.65831 3.93995 7.95013 3.66021 9.3565C3.38046 10.7629 3.52404 12.2206 4.07277 13.5454C4.62151 14.8701 5.55076 16.0024 6.74302 16.7991Z" fill="#272727"/>
</svg>
