<svg width="24" height="24" viewBox="0 0 24 24" fill="none" xmlns="http://www.w3.org/2000/svg">
<path fill-rule="evenodd" clip-rule="evenodd" d="M21.1667 12C21.1667 17.0626 17.0626 21.1667 12 21.1667C6.93739 21.1667 2.83333 17.0626 2.83333 12C2.83333 6.93739 6.93739 2.83333 12 2.83333C17.0626 2.83333 21.1667 6.93739 21.1667 12ZM22 12C22 17.5228 17.5228 22 12 22C6.47715 22 2 17.5228 2 12C2 6.47715 6.47715 2 12 2C17.5228 2 22 6.47715 22 12ZM13.8008 12.1495L13.6358 12.2981L13.8355 12.3877C14.7492 12.7503 15.547 13.3548 16.1434 14.1363C16.7398 14.9178 17.1122 15.8468 17.2208 16.8237C17.2325 16.9329 17.2005 17.0423 17.1319 17.1281C17.0647 17.212 16.9678 17.2667 16.8615 17.2808L16.8089 17.2808L16.8081 17.2808C16.7051 17.2815 16.6055 17.2439 16.5285 17.1754C16.4516 17.1069 16.4027 17.0122 16.3914 16.9098C16.2656 15.7898 15.7316 14.7555 14.8914 14.0044C14.0512 13.2533 12.9637 12.8381 11.8367 12.8381C10.7097 12.8381 9.62223 13.2533 8.78203 14.0044C7.94183 14.7555 7.40777 15.7902 7.28197 16.9101C7.26979 17.0208 7.21412 17.1222 7.12721 17.1919C7.0403 17.2615 6.92927 17.2939 6.81855 17.2817C6.70782 17.2695 6.60646 17.2138 6.53678 17.1269C6.50228 17.0839 6.47659 17.0345 6.46118 16.9815C6.44578 16.9286 6.44095 16.8732 6.44696 16.8184C6.55505 15.8441 6.92552 14.9174 7.51886 14.1371C8.1122 13.3568 8.90617 12.7521 9.81612 12.3875L10.0393 12.2981L9.85035 12.1495C9.32838 11.7388 8.94739 11.1756 8.76039 10.5384C8.57338 9.90109 8.58965 9.22136 8.80694 8.59376C9.02424 7.96616 9.43174 7.42189 9.97277 7.03668C10.5138 6.65146 11.1614 6.44445 11.8256 6.44445C12.4897 6.44445 13.1374 6.65146 13.6784 7.03668C14.2194 7.42189 14.6269 7.96616 14.8442 8.59376C15.0615 9.22136 15.0778 9.90109 14.8908 10.5384C14.7038 11.1756 14.3228 11.7388 13.8008 12.1495ZM11.8256 12.0031C11.3586 12.0031 10.9021 11.8646 10.5138 11.6051C10.1255 11.3457 9.82291 10.9769 9.6442 10.5455C9.46549 10.1141 9.41873 9.63933 9.50984 9.18132C9.60094 8.72331 9.82582 8.3026 10.156 7.97239C10.4862 7.64219 10.9069 7.41731 11.365 7.32621C11.823 7.2351 12.2977 7.28186 12.7291 7.46057C13.1606 7.63928 13.5293 7.9419 13.7888 8.33019C14.0482 8.71847 14.1867 9.17497 14.1867 9.64195C14.1867 10.2682 13.9379 10.8687 13.4951 11.3115C13.0523 11.7543 12.4518 12.0031 11.8256 12.0031Z" fill="#272727"/>
</svg>
