<svg width="24" height="24" viewBox="0 0 24 24" fill="none" xmlns="http://www.w3.org/2000/svg">
<path d="M16.7 19.73H7.3C6.56 19.73 5.81 19.2 5.56 18.51L1.42 6.91998C0.909994 5.45998 1.28 4.78998 1.68 4.48998C2.08 4.18998 2.83 4.00998 4.09 4.90998L7.99 7.69998C8.11 7.76998 8.22 7.79998 8.3 7.77998C8.39 7.74998 8.46 7.66998 8.51 7.52998L10.27 2.83998C10.8 1.43998 11.58 1.22998 12 1.22998C12.42 1.22998 13.2 1.43998 13.73 2.83998L15.49 7.52998C15.54 7.65998 15.61 7.74998 15.7 7.77998C15.79 7.80998 15.9 7.77998 16.01 7.68998L19.67 5.07998C21.01 4.11998 21.79 4.30998 22.22 4.61998C22.64 4.93998 23.03 5.64998 22.48 7.19998L18.44 18.51C18.19 19.2 17.44 19.73 16.7 19.73ZM2.68 5.80998C2.7 5.94998 2.74 6.14998 2.84 6.40998L6.98 18C7.02 18.1 7.2 18.23 7.3 18.23H16.7C16.81 18.23 16.99 18.1 17.02 18L21.06 6.69998C21.2 6.31998 21.24 6.05998 21.25 5.90998C21.1 5.95998 20.87 6.06998 20.54 6.30998L16.88 8.91998C16.38 9.26998 15.79 9.37998 15.26 9.21998C14.73 9.05998 14.3 8.63998 14.08 8.06998L12.32 3.37998C12.19 3.02998 12.07 2.85998 12 2.77998C11.93 2.85998 11.81 3.02998 11.68 3.36998L9.92 8.05998C9.71 8.62998 9.28 9.04998 8.74 9.20998C8.21 9.36998 7.61 9.25998 7.12 8.90998L3.22 6.11998C2.99 5.95998 2.81 5.85998 2.68 5.80998Z" fill="#272727"/>
<path d="M17.5 22.75H6.5C6.09 22.75 5.75 22.41 5.75 22C5.75 21.59 6.09 21.25 6.5 21.25H17.5C17.91 21.25 18.25 21.59 18.25 22C18.25 22.41 17.91 22.75 17.5 22.75Z" fill="#272727"/>
<path d="M14.5 14.75H9.5C9.09 14.75 8.75 14.41 8.75 14C8.75 13.59 9.09 13.25 9.5 13.25H14.5C14.91 13.25 15.25 13.59 15.25 14C15.25 14.41 14.91 14.75 14.5 14.75Z" fill="#272727"/>
</svg>
