<svg width="24" height="24" viewBox="0 0 24 24" fill="none" xmlns="http://www.w3.org/2000/svg">
<path fill-rule="evenodd" clip-rule="evenodd" d="M17.5373 20.5111L16.843 20.9697H21.6099C21.7797 20.9697 21.9425 21.0372 22.0625 21.1572C22.1826 21.2773 22.25 21.4401 22.25 21.6099C22.25 21.7796 22.1826 21.9425 22.0625 22.0625C21.9425 22.1826 21.7797 22.25 21.6099 22.25H11.75C9.18743 22.25 6.71329 21.3129 4.79376 19.6151C2.87422 17.9174 1.6418 15.5763 1.3287 13.0329C1.01559 10.4895 1.64341 7.91944 3.09388 5.80685C4.54434 3.69426 6.71731 2.18504 9.20339 1.56352C11.6895 0.941999 14.317 1.25109 16.591 2.43257C18.865 3.61405 20.6284 5.58633 21.549 7.97785C22.4696 10.3694 22.4839 13.015 21.5891 15.4163C20.8095 17.5087 19.3865 19.2897 17.5373 20.5111ZM5.23368 18.2663C6.96213 19.9948 9.30564 20.967 11.75 20.9697C13.5734 20.9697 15.3561 20.429 16.8722 19.4159C18.3884 18.4029 19.5701 16.9629 20.2679 15.2782C20.9658 13.5936 21.1483 11.7398 20.7926 9.95133C20.4369 8.16287 19.5588 6.52007 18.2694 5.23067C16.98 3.94126 15.3372 3.06317 13.5487 2.70742C11.7602 2.35168 9.90646 2.53426 8.22178 3.23208C6.53709 3.9299 5.09716 5.11162 4.08408 6.6278C3.07104 8.14392 2.53032 9.92668 2.53028 11.7501C2.53302 14.1945 3.50526 16.5379 5.23368 18.2663ZM13.9896 6.3746C14.0777 6.81754 14.0325 7.27667 13.8596 7.69391C13.6868 8.11115 13.3941 8.46778 13.0186 8.71868C12.6431 8.96959 12.2016 9.10351 11.75 9.10351C11.1444 9.10351 10.5636 8.86294 10.1354 8.43471C9.70716 8.00648 9.46658 7.42568 9.46658 6.82008C9.46658 6.36845 9.6005 5.92697 9.85141 5.55147C10.1023 5.17596 10.4589 4.88328 10.8762 4.71045C11.2934 4.53763 11.7526 4.49241 12.1955 4.58051C12.6384 4.66862 13.0453 4.8861 13.3647 5.20544C13.684 5.52479 13.9015 5.93165 13.9896 6.3746ZM12.7339 7.01579C12.7726 6.82119 12.7528 6.61948 12.6768 6.43617C12.6009 6.25287 12.4723 6.09619 12.3074 5.98596C12.1424 5.87573 11.9484 5.81689 11.75 5.81689C11.484 5.81689 11.2288 5.92258 11.0407 6.11072C10.8525 6.29885 10.7468 6.55401 10.7468 6.82008C10.7468 7.01849 10.8057 7.21244 10.9159 7.37741C11.0261 7.54239 11.1828 7.67097 11.3661 7.7469C11.5494 7.82282 11.7511 7.84269 11.9457 7.80398C12.1403 7.76528 12.3191 7.66973 12.4594 7.52943C12.5997 7.38914 12.6952 7.21039 12.7339 7.01579ZM8.71869 13.0186C8.46779 13.3941 8.11116 13.6868 7.69392 13.8596C7.27668 14.0325 6.81755 14.0777 6.37461 13.9896C5.93166 13.9015 5.52479 13.684 5.20545 13.3646C4.88611 13.0453 4.66863 12.6384 4.58052 12.1955C4.49242 11.7525 4.53764 11.2934 4.71046 10.8762C4.88329 10.4589 5.17597 10.1023 5.55147 9.8514C5.92698 9.60049 6.36846 9.46657 6.82008 9.46657C7.42569 9.46657 8.00649 9.70715 8.43472 10.1354C8.86295 10.5636 9.10352 11.1444 9.10352 11.75C9.10352 12.2016 8.9696 12.6431 8.71869 13.0186ZM15.8061 9.64039C16.2234 9.46756 16.6825 9.42234 17.1254 9.51045C17.5684 9.59855 17.9752 9.81603 18.2946 10.1354C18.6139 10.4547 18.8314 10.8616 18.9195 11.3045C19.0076 11.7475 18.9624 12.2066 18.7896 12.6238C18.6167 13.0411 18.3241 13.3977 17.9486 13.6486C17.5731 13.8995 17.1316 14.0334 16.6799 14.0334C16.0743 14.0334 15.4935 13.7929 15.0653 13.3646C14.6371 12.9364 14.3965 12.3556 14.3965 11.75C14.3965 11.2984 14.5304 10.8569 14.7813 10.4814C15.0322 10.1059 15.3889 9.81322 15.8061 9.64039ZM7.20399 10.8232C7.02068 10.7473 6.81897 10.7274 6.62437 10.7661C6.42977 10.8048 6.25102 10.9004 6.11073 11.0406C5.97043 11.1809 5.87488 11.3597 5.83618 11.5543C5.79747 11.7489 5.81734 11.9506 5.89326 12.1339C5.96919 12.3172 6.09777 12.4739 6.26275 12.5841C6.42772 12.6944 6.62167 12.7532 6.82008 12.7532C7.08615 12.7532 7.34131 12.6475 7.52944 12.4594C7.71758 12.2712 7.82327 12.0161 7.82327 11.75C7.82327 11.5516 7.76443 11.3576 7.6542 11.1927C7.54397 11.0277 7.3873 10.8991 7.20399 10.8232ZM16.6799 10.7468C16.4139 10.7468 16.1587 10.8525 15.9706 11.0406C15.7825 11.2288 15.6768 11.4839 15.6768 11.75C15.6768 11.9484 15.7356 12.1424 15.8458 12.3073C15.9561 12.4723 16.1127 12.6009 16.296 12.6768C16.4794 12.7528 16.6811 12.7726 16.8757 12.7339C17.0703 12.6952 17.249 12.5997 17.3893 12.4594C17.5296 12.3191 17.6252 12.1403 17.6639 11.9457C17.7026 11.7511 17.6827 11.5494 17.6068 11.3661C17.5308 11.1828 17.4023 11.0261 17.2373 10.9159C17.0723 10.8057 16.8784 10.7468 16.6799 10.7468ZM11.3045 14.4404C11.7475 14.3523 12.2066 14.3975 12.6239 14.5703C13.0411 14.7431 13.3977 15.0358 13.6486 15.4113C13.8995 15.7868 14.0335 16.2283 14.0335 16.6799C14.0335 17.2855 13.7929 17.8663 13.3647 18.2946C12.9364 18.7228 12.3556 18.9634 11.75 18.9634C11.2984 18.9634 10.8569 18.8295 10.4814 18.5786C10.1059 18.3276 9.81322 17.971 9.6404 17.5538C9.46757 17.1365 9.42235 16.6774 9.51046 16.2345C9.59856 15.7915 9.81604 15.3847 10.1354 15.0653C10.4547 14.746 10.8616 14.5285 11.3045 14.4404ZM11.9457 15.696C11.7511 15.6573 11.5494 15.6772 11.3661 15.7531C11.1828 15.829 11.0261 15.9576 10.9159 16.1226C10.8057 16.2876 10.7468 16.4815 10.7468 16.6799C10.7468 16.946 10.8525 17.2012 11.0407 17.3893C11.2288 17.5774 11.484 17.6831 11.75 17.6831C11.9484 17.6831 12.1424 17.6243 12.3074 17.5141C12.4723 17.4038 12.6009 17.2472 12.6768 17.0638C12.7528 16.8805 12.7726 16.6788 12.7339 16.4842C12.6952 16.2896 12.5997 16.1109 12.4594 15.9706C12.3191 15.8303 12.1403 15.7347 11.9457 15.696Z" fill="#272727"/>
</svg>
