<svg width="24" height="24" viewBox="0 0 24 24" fill="none" xmlns="http://www.w3.org/2000/svg">
<path d="M11.9998 13.11C11.5898 13.11 11.2498 12.77 11.2498 12.36V12.15C11.2498 10.99 12.0998 10.42 12.4198 10.2C12.7898 9.95001 12.9098 9.78001 12.9098 9.52001C12.9098 9.02001 12.4998 8.60999 11.9998 8.60999C11.4998 8.60999 11.0898 9.02001 11.0898 9.52001C11.0898 9.93001 10.7498 10.27 10.3398 10.27C9.92984 10.27 9.58984 9.93001 9.58984 9.52001C9.58984 8.19001 10.6698 7.10999 11.9998 7.10999C13.3298 7.10999 14.4098 8.19001 14.4098 9.52001C14.4098 10.66 13.5698 11.23 13.2598 11.44C12.8698 11.7 12.7498 11.87 12.7498 12.15V12.36C12.7498 12.78 12.4098 13.11 11.9998 13.11Z" fill="#272727"/>
<path d="M12 15.6C11.58 15.6 11.25 15.26 11.25 14.85C11.25 14.44 11.59 14.1 12 14.1C12.41 14.1 12.75 14.44 12.75 14.85C12.75 15.26 12.42 15.6 12 15.6Z" fill="#272727"/>
<path d="M11.75 22.5C5.82 22.5 1 17.68 1 11.75C1 5.82 5.82 1 11.75 1C17.68 1 22.5 5.82 22.5 11.75C22.5 17.68 17.68 22.5 11.75 22.5ZM11.75 2.5C6.65 2.5 2.5 6.65 2.5 11.75C2.5 16.85 6.65 21 11.75 21C16.85 21 21 16.85 21 11.75C21 6.65 16.85 2.5 11.75 2.5Z" fill="#272727"/>
</svg>
