<svg width="32" height="32" viewBox="0 0 32 32" fill="none" xmlns="http://www.w3.org/2000/svg">
<path d="M12.9586 4C13.5136 4 13.9586 4.445 13.9586 5V16H15.9586V12C15.9586 11.445 16.4036 11 16.9586 11C17.5136 11 17.9586 11.445 17.9586 12V16H19.9586V12C19.9586 11.445 20.4036 11 20.9586 11C21.5136 11 21.9586 11.445 21.9586 12V16H24.0526V14C24.0526 13.445 24.4976 13 25.0526 13C25.6066 13 26.0526 13.445 26.0526 14V21.813C26.0526 25.277 23.3296 28 19.8646 28H18.1466C16.6816 28 15.4156 27.477 14.3646 26.687L6.27065 18.687C5.82565 18.242 5.82565 17.757 6.27065 17.312C6.71665 16.867 7.20065 16.867 7.64565 17.312L11.9586 21.625V5C11.9586 4.445 12.4036 4 12.9586 4Z" fill="white"/>
<path d="M12.9586 2C11.3136 2 9.95862 3.355 9.95862 5V16.813L9.30262 16.125L9.05262 15.906C8.4964 15.3523 7.74349 15.0414 6.95862 15.0414C6.17376 15.0414 5.42085 15.3523 4.86462 15.906C4.31088 16.4622 4 17.2151 4 18C4 18.7849 4.31088 19.5378 4.86462 20.094V20.125L13.0526 28.219L13.1146 28.25L13.1456 28.313C14.5846 29.4038 16.3399 29.996 18.1456 30H19.8656C20.9415 30.0022 22.0072 29.792 23.0015 29.3813C23.9959 28.9706 24.8994 28.3675 25.6601 27.6067C26.4208 26.8459 27.0237 25.9424 27.4343 24.948C27.8449 23.9536 28.055 22.8878 28.0526 21.812V14C28.0526 12.355 26.6966 11 25.0526 11C24.6266 11 24.2326 11.117 23.8646 11.281C23.5366 9.981 22.3536 9 20.9586 9C20.1926 9 19.4896 9.3 18.9586 9.781C18.412 9.28153 17.6991 9.00316 16.9586 9C16.6169 9.00427 16.2786 9.06789 15.9586 9.188V5C15.9586 3.355 14.6036 2 12.9586 2ZM12.9586 4C13.5136 4 13.9586 4.445 13.9586 5V16H15.9586V12C15.9586 11.445 16.4036 11 16.9586 11C17.5136 11 17.9586 11.445 17.9586 12V16H19.9586V12C19.9586 11.445 20.4036 11 20.9586 11C21.5136 11 21.9586 11.445 21.9586 12V16H24.0526V14C24.0526 13.445 24.4976 13 25.0526 13C25.6066 13 26.0526 13.445 26.0526 14V21.813C26.0526 25.277 23.3296 28 19.8646 28H18.1466C16.6816 28 15.4156 27.477 14.3646 26.687L6.27065 18.687C5.82565 18.242 5.82565 17.757 6.27065 17.312C6.71665 16.867 7.20065 16.867 7.64565 17.312L11.9586 21.625V5C11.9586 4.445 12.4036 4 12.9586 4Z" fill="#020528"/>
</svg>
