<svg width="24" height="24" viewBox="0 0 24 24" fill="none" xmlns="http://www.w3.org/2000/svg">
<path d="M16.2799 22.1H12.4799C11.9199 22.1 10.6999 21.93 10.0499 21.28L7.01986 18.94L7.93986 17.75L11.0399 20.15C11.2899 20.39 11.9199 20.59 12.4799 20.59H16.2799C17.1799 20.59 18.1499 19.87 18.3499 19.06L20.7699 11.71C20.9299 11.27 20.8999 10.87 20.6899 10.58C20.4699 10.27 20.0699 10.09 19.5799 10.09H15.5799C15.0599 10.09 14.5799 9.86999 14.2499 9.48999C13.9099 9.09999 13.7599 8.57999 13.8399 8.03999L14.3399 4.82999C14.4599 4.26999 14.0799 3.63999 13.5399 3.45999C13.0499 3.27999 12.4199 3.53999 12.1999 3.85999L8.09986 9.95999L6.85986 9.12999L10.9599 3.02999C11.5899 2.08999 12.9699 1.63999 14.0499 2.04999C15.2999 2.45999 16.0999 3.83999 15.8199 5.11999L15.3299 8.26999C15.3199 8.33999 15.3199 8.43999 15.3899 8.51999C15.4399 8.56999 15.5099 8.59999 15.5899 8.59999H19.5899C20.5699 8.59999 21.4199 9.00999 21.9199 9.71999C22.4099 10.41 22.5099 11.32 22.1899 12.2L19.7999 19.48C19.4299 20.93 17.8899 22.1 16.2799 22.1Z" fill="#272727"/>
<path d="M5.37988 21H4.37988C2.52988 21 1.62988 20.13 1.62988 18.35V8.55002C1.62988 6.77002 2.52988 5.90002 4.37988 5.90002H5.37988C7.22988 5.90002 8.12988 6.77002 8.12988 8.55002V18.35C8.12988 20.13 7.22988 21 5.37988 21ZM4.37988 7.40002C3.28988 7.40002 3.12988 7.66002 3.12988 8.55002V18.35C3.12988 19.24 3.28988 19.5 4.37988 19.5H5.37988C6.46988 19.5 6.62988 19.24 6.62988 18.35V8.55002C6.62988 7.66002 6.46988 7.40002 5.37988 7.40002H4.37988Z" fill="#272727"/>
</svg>
