<svg width="24" height="24" viewBox="0 0 24 24" fill="none" xmlns="http://www.w3.org/2000/svg">
<path d="M16.295 9.12921C16.4931 9.12921 16.6832 9.20762 16.8237 9.34731C16.894 9.41703 16.95 9.50018 16.9881 9.59157C17.0262 9.68297 17.0458 9.781 17.0458 9.88C17.0458 9.97901 17.0262 10.077 16.9881 10.1684C16.9501 10.2598 16.8942 10.3428 16.8239 10.4125L12.5342 14.6522L12.5325 14.654C12.4628 14.7242 12.3798 14.78 12.2884 14.8181C12.197 14.8562 12.099 14.8758 12 14.8758C11.901 14.8758 11.803 14.8562 11.7116 14.8181C11.6202 14.78 11.5372 14.7242 11.4675 14.654L7.22677 10.4132L7.22604 10.4125C7.15575 10.3428 7.09995 10.2598 7.06188 10.1684C7.0238 10.077 7.0042 9.97901 7.0042 9.88C7.0042 9.78099 7.0238 9.68297 7.06188 9.59157C7.09995 9.50018 7.15595 9.41703 7.22624 9.34731C7.36677 9.20762 7.55685 9.12921 7.75499 9.12921C7.95302 9.12921 8.14325 9.20777 8.28374 9.34731L11.9988 13.0623L15.7655 9.34802L15.7662 9.34731C15.9068 9.20762 16.0969 9.12921 16.295 9.12921Z"/>
</svg>
