<svg width="24" height="24" viewBox="0 0 64 64" fill="none" xmlns="http://www.w3.org/2000/svg">
<path d="M32.0012 60.6668C18.9879 60.6668 8.40121 50.0802 8.40121 37.0668C8.32121 21.7868 22.8812 9.06683 29.1478 4.2935C30.8278 3.0135 33.1745 3.0135 34.8545 4.2935C41.1212 9.14683 55.6812 22.0268 55.6012 37.0935C55.6012 50.0802 45.0145 60.6668 32.0012 60.6668ZM32.0012 7.3335C31.8678 7.3335 31.7078 7.38683 31.5745 7.4935C27.0678 10.9335 12.3479 23.2268 12.4279 37.0668C12.4279 47.8935 21.2279 56.6668 32.0278 56.6668C42.8279 56.6668 51.6278 47.8935 51.6278 37.0935C51.7079 23.4402 36.9612 10.9868 32.4278 7.4935C32.2678 7.38683 32.1345 7.3335 32.0012 7.3335Z" fill="#D9C2AE"/>
</svg>
