<svg width="24" height="24" viewBox="0 0 24 24" fill="none" xmlns="http://www.w3.org/2000/svg">
<path d="M19.5 20.5714H4.49999C3.78845 20.5715 3.10385 20.2992 2.58665 19.8106C2.06945 19.3219 1.75885 18.6538 1.71857 17.9434L1.71428 17.7857V5.35714C1.71422 4.86847 1.89968 4.39798 2.23317 4.04079C2.56666 3.68359 3.02332 3.46631 3.51085 3.43286L3.64285 3.42857H16.9286C17.4172 3.42851 17.8877 3.61397 18.2449 3.94746C18.6021 4.28095 18.8194 4.73761 18.8529 5.22515L18.8571 5.35714V6H20.3571C20.8458 5.99994 21.3163 6.1854 21.6735 6.51889C22.0307 6.85238 22.248 7.30904 22.2814 7.79657L22.2857 7.92857V17.7857C22.2858 18.4973 22.0135 19.1819 21.5248 19.6991C21.0362 20.2163 20.3681 20.5269 19.6577 20.5671L19.5 20.5714ZM4.49999 19.2857H19.5C19.8766 19.2857 20.2394 19.144 20.5163 18.8888C20.7933 18.6336 20.9641 18.2836 20.9949 17.9083L21 17.7857V7.92857C21 7.77323 20.9437 7.62314 20.8416 7.50606C20.7395 7.38899 20.5985 7.31284 20.4446 7.29172L20.3571 7.28572H18.8571V16.5C18.8571 16.6553 18.8009 16.8054 18.6988 16.9225C18.5967 17.0396 18.4556 17.1157 18.3017 17.1369L18.2143 17.1429C18.0589 17.1429 17.9088 17.0866 17.7918 16.9845C17.6747 16.8824 17.5985 16.7413 17.5774 16.5874L17.5714 16.5V5.35714C17.5714 5.2018 17.5152 5.05171 17.4131 4.93463C17.3109 4.81756 17.1699 4.74141 17.016 4.72029L16.9286 4.71429H3.64285C3.4875 4.71429 3.33741 4.77055 3.22034 4.87266C3.10326 4.97477 3.02712 5.11581 3.00599 5.26972L2.99999 5.35714V17.7857C3.00001 18.1622 3.14157 18.5248 3.39658 18.8018C3.65158 19.0787 4.00139 19.2496 4.37656 19.2806L4.49999 19.2857ZM8.78228 11.1463C9.37371 11.1463 9.85371 11.6263 9.85371 12.2177V15.2143C9.85371 15.8057 9.37371 16.2857 8.78228 16.2857H5.78571C5.19428 16.2857 4.71428 15.8057 4.71428 15.2143V12.2177C4.71428 11.6263 5.19428 11.1463 5.78571 11.1463H8.78228ZM12.2143 15H15.2109C15.3737 15.0001 15.5305 15.0619 15.6495 15.1731C15.7685 15.2843 15.8409 15.4365 15.852 15.599C15.8631 15.7615 15.8121 15.9222 15.7093 16.0485C15.6066 16.1749 15.4596 16.2575 15.2983 16.2797L15.2109 16.2857H12.2143C12.0514 16.2857 11.8946 16.2238 11.7756 16.1126C11.6566 16.0014 11.5842 15.8492 11.5731 15.6867C11.562 15.5242 11.613 15.3635 11.7158 15.2372C11.8186 15.1108 11.9655 15.0282 12.1269 15.006L12.2143 15ZM8.56885 12.432H5.99999V15H8.56885V12.432ZM12.2143 11.1463H15.2109C15.3737 11.1463 15.5305 11.2082 15.6495 11.3194C15.7685 11.4306 15.8409 11.5828 15.852 11.7453C15.8631 11.9078 15.8121 12.0685 15.7093 12.1948C15.6066 12.3212 15.4596 12.4038 15.2983 12.426L15.2109 12.432H12.2143C12.0502 12.4337 11.8918 12.3726 11.7713 12.2612C11.6509 12.1498 11.5776 11.9966 11.5664 11.833C11.5552 11.6693 11.607 11.5076 11.7112 11.3809C11.8154 11.2541 11.9641 11.1721 12.1269 11.1514L12.2143 11.1463ZM5.35371 7.28314H15.2109C15.3737 7.28319 15.5305 7.34507 15.6495 7.45626C15.7685 7.56746 15.8409 7.71969 15.852 7.88218C15.8631 8.04468 15.8121 8.20534 15.7093 8.33169C15.6066 8.45804 15.4596 8.54066 15.2983 8.56286L15.2109 8.56886H5.35371C5.1909 8.56859 5.03426 8.50657 4.91541 8.3953C4.79656 8.28404 4.72435 8.13182 4.71336 7.96939C4.70238 7.80696 4.75343 7.64641 4.85621 7.52015C4.95899 7.39389 5.10585 7.31133 5.26714 7.28914L5.35371 7.28314Z" fill="#272727"/>
</svg>
