<svg width="24" height="24" viewBox="0 0 24 24" fill="none" xmlns="http://www.w3.org/2000/svg">
<path fill-rule="evenodd" clip-rule="evenodd" d="M9.91662 8.88199C10.5333 8.46993 11.2583 8.25 12 8.25C12.9946 8.25 13.9484 8.64509 14.6517 9.34835C15.3549 10.0516 15.75 11.0054 15.75 12C15.75 12.7417 15.5301 13.4667 15.118 14.0834C14.706 14.7001 14.1203 15.1807 13.4351 15.4645C12.7498 15.7484 11.9958 15.8226 11.2684 15.6779C10.541 15.5333 9.8728 15.1761 9.34836 14.6517C8.82391 14.1272 8.46675 13.459 8.32206 12.7316C8.17737 12.0042 8.25163 11.2502 8.53546 10.5649C8.81929 9.87971 9.29993 9.29404 9.91662 8.88199ZM10.75 13.8708C11.12 14.118 11.555 14.25 12 14.25C12.5967 14.25 13.169 14.0129 13.591 13.591C14.013 13.169 14.25 12.5967 14.25 12C14.25 11.555 14.118 11.12 13.8708 10.75C13.6236 10.38 13.2722 10.0916 12.861 9.92127C12.4499 9.75097 11.9975 9.70642 11.5611 9.79323C11.1246 9.88005 10.7237 10.0943 10.409 10.409C10.0943 10.7237 9.88006 11.1246 9.79324 11.561C9.70642 11.9975 9.75098 12.4499 9.92128 12.861C10.0916 13.2722 10.38 13.6236 10.75 13.8708Z" fill="#6E7072"/>
<path fill-rule="evenodd" clip-rule="evenodd" d="M2.30914 11.7L2.30961 11.6989C4.30203 7.07294 8.02685 4.25 12 4.25C15.9732 4.25 19.698 7.07294 21.6904 11.6989L21.92 11.6L21.6909 11.7C21.7322 11.7946 21.7535 11.8968 21.7535 12C21.7535 12.1032 21.7322 12.2054 21.6909 12.3L21.6904 12.3011C19.698 16.9271 15.9732 19.75 12 19.75C8.02685 19.75 4.30203 16.9271 2.30962 12.3011L2.30913 12.3C2.26784 12.2054 2.24652 12.1032 2.24652 12C2.24652 11.8968 2.26784 11.7946 2.30914 11.7ZM3.87343 11.8943L3.82416 12L3.87343 12.1057C5.62974 15.8721 8.70222 18.25 12 18.25C15.2978 18.25 18.3703 15.8721 20.1266 12.1057L20.1758 12L20.1266 11.8943C18.3703 8.12792 15.2978 5.75 12 5.75C8.70222 5.75 5.62974 8.12792 3.87343 11.8943Z" fill="#6E7072"/>
</svg>
