<svg width="24" height="24" viewBox="0 0 24 24" fill="none" xmlns="http://www.w3.org/2000/svg">
<path d="M15.24 22.27H15.11C10.67 22.27 8.53002 20.52 8.16002 16.6C8.12002 16.19 8.42002 15.82 8.84002 15.78C9.24002 15.74 9.62002 16.05 9.66002 16.46C9.95002 19.6 11.43 20.77 15.12 20.77H15.25C19.32 20.77 20.76 19.33 20.76 15.26V8.74001C20.76 4.67001 19.32 3.23001 15.25 3.23001H15.12C11.41 3.23001 9.93002 4.42001 9.66002 7.62001C9.61002 8.03001 9.26002 8.34001 8.84002 8.30001C8.42002 8.27001 8.12001 7.90001 8.15001 7.49001C8.49001 3.51001 10.64 1.73001 15.11 1.73001H15.24C20.15 1.73001 22.25 3.83001 22.25 8.74001V15.26C22.25 20.17 20.15 22.27 15.24 22.27Z" fill="#272727"/>
<path d="M15.0001 12.75H3.62012C3.21012 12.75 2.87012 12.41 2.87012 12C2.87012 11.59 3.21012 11.25 3.62012 11.25H15.0001C15.4101 11.25 15.7501 11.59 15.7501 12C15.7501 12.41 15.4101 12.75 15.0001 12.75Z" fill="#272727"/>
<path d="M5.84994 16.1C5.65994 16.1 5.46994 16.03 5.31994 15.88L1.96994 12.53C1.67994 12.24 1.67994 11.76 1.96994 11.47L5.31994 8.12C5.60994 7.83 6.08994 7.83 6.37994 8.12C6.66994 8.41 6.66994 8.89 6.37994 9.18L3.55994 12L6.37994 14.82C6.66994 15.11 6.66994 15.59 6.37994 15.88C6.23994 16.03 6.03994 16.1 5.84994 16.1Z" fill="#272727"/>
</svg>
