<svg width="24" height="24" viewBox="0 0 24 24" fill="none" xmlns="http://www.w3.org/2000/svg">
<path fill-rule="evenodd" clip-rule="evenodd" d="M8.54546 8.79275C8.68754 8.40366 9.11814 8.20343 9.50722 8.34551C11.1211 8.93484 12.8788 8.93484 14.4927 8.34551C14.8818 8.20343 15.3124 8.40366 15.4545 8.79275C15.5965 9.18183 15.3963 9.61243 15.0072 9.75451C13.0611 10.4652 10.9388 10.4652 8.9927 9.75451C8.60362 9.61243 8.40338 9.18183 8.54546 8.79275Z" fill="#292D32"/>
<path d="M16.8199 2H7.17995C5.04995 2 3.31995 3.74 3.31995 5.86V19.95C3.31995 21.75 4.60995 22.51 6.18995 21.64L11.0699 18.93C11.5899 18.64 12.4299 18.64 12.9399 18.93L17.8199 21.64C19.3999 22.52 20.6899 21.76 20.6899 19.95V5.86C20.6799 3.74 18.9499 2 16.8199 2Z" stroke="#292D32" stroke-width="1.5" stroke-linecap="round" stroke-linejoin="round"/>
<path fill-rule="evenodd" clip-rule="evenodd" d="M2.56995 5.86C2.56995 3.32705 4.63447 1.25 7.17995 1.25H16.8199C19.3661 1.25 21.428 3.32697 21.4399 5.85646L21.44 5.86L21.4399 19.95C21.4399 21.0187 21.0529 21.9642 20.2281 22.45C19.403 22.9359 18.3892 22.8153 17.4558 22.2957M17.4558 22.2957L12.5692 19.582C12.4556 19.5174 12.2547 19.4625 12.0087 19.4625C11.7635 19.4625 11.557 19.5171 11.4352 19.585L6.55406 22.2957L6.5517 22.297C5.61743 22.8114 4.60483 22.9272 3.78184 22.4425C2.95828 21.9575 2.56995 21.0157 2.56995 19.95V5.86M7.17995 2.75C5.46542 2.75 4.06995 4.15295 4.06995 5.86V19.95C4.06995 20.6843 4.32662 21.0225 4.54305 21.15C4.75993 21.2777 5.18195 21.3385 5.82701 20.9837C5.8274 20.9834 5.82779 20.9832 5.82819 20.983L10.7046 18.275C10.7045 18.2751 10.7048 18.2749 10.7046 18.275C11.1028 18.0531 11.5766 17.9625 12.0087 17.9625C12.4389 17.9625 12.9113 18.0521 13.307 18.276L18.1841 20.9843C18.8305 21.3444 19.2521 21.284 19.4668 21.1575C19.682 21.0308 19.9399 20.6913 19.9399 19.95V5.862C19.931 4.15219 18.5333 2.75 16.8199 2.75H7.17995Z" fill="#292D32"/>
</svg>
