<svg width="24" height="24" viewBox="0 0 24 24" fill="none" xmlns="http://www.w3.org/2000/svg">
<path d="M3.95 11.25H20.05C20.4366 11.25 20.75 11.5634 20.75 11.95V12.05C20.75 12.4366 20.4366 12.75 20.05 12.75H3.95C3.5634 12.75 3.25 12.4366 3.25 12.05V11.95C3.25 11.5634 3.5634 11.25 3.95 11.25Z" fill="#343545"/>
<path d="M3.95 16.25H20.05C20.4366 16.25 20.75 16.5634 20.75 16.95V17.05C20.75 17.4366 20.4366 17.75 20.05 17.75H3.95C3.5634 17.75 3.25 17.4366 3.25 17.05V16.95C3.25 16.5634 3.5634 16.25 3.95 16.25Z" fill="#343545"/>
<path d="M3.95 6.25H20.05C20.4366 6.25 20.75 6.5634 20.75 6.95V7.05C20.75 7.4366 20.4366 7.75 20.05 7.75H3.95C3.5634 7.75 3.25 7.4366 3.25 7.05V6.95C3.25 6.5634 3.5634 6.25 3.95 6.25Z" fill="#343545"/>
</svg>
