<svg width="24" height="24" viewBox="0 0 24 24" fill="none" xmlns="http://www.w3.org/2000/svg">
<path d="M20.3738 4.60013L20.9738 4.56053C20.966 4.44275 20.9237 4.32987 20.852 4.23604C20.7804 4.14221 20.6827 4.0716 20.5711 4.03304C20.4596 3.99449 20.3391 3.9897 20.2248 4.01928C20.1105 4.04886 20.0075 4.1115 19.9287 4.19934L20.3738 4.60013ZM19.7763 8.15083C19.7763 7.99171 19.713 7.8391 19.6005 7.72658C19.488 7.61406 19.3354 7.55085 19.1763 7.55085C19.0172 7.55085 18.8645 7.61406 18.752 7.72658C18.6395 7.8391 18.5763 7.99171 18.5763 8.15083H19.7763ZM3.60072 17.7998V17.1998C3.47189 17.1996 3.34643 17.2409 3.2429 17.3176C3.13937 17.3943 3.06327 17.5022 3.02586 17.6255C2.98844 17.7488 2.9917 17.8808 3.03516 18.0021C3.07861 18.1234 3.15994 18.2275 3.26713 18.2989L3.60072 17.7998ZM4.79828 4.60013L5.36107 4.39014C5.32017 4.28059 5.24815 4.18538 5.15387 4.11622C5.05959 4.04705 4.94715 4.00694 4.83038 4.00082C4.7136 3.9947 4.59759 4.02284 4.49659 4.08177C4.3956 4.14071 4.31402 4.22787 4.2619 4.33254L4.79828 4.60013ZM9.59095 15.3998L10.0157 15.8234C10.0878 15.7511 10.1402 15.6616 10.1681 15.5634C10.1959 15.4652 10.1982 15.3615 10.1748 15.2621C10.1514 15.1628 10.103 15.071 10.0342 14.9956C9.96541 14.9202 9.87852 14.8635 9.78174 14.831L9.59095 15.3998ZM18.2595 5.7677L17.8155 6.17089L18.0315 6.40968L18.3495 6.36168L18.2595 5.7677ZM19.7763 4.63973C19.8375 5.57331 19.7799 6.13969 19.6287 6.56688C19.4823 6.98087 19.2255 7.32166 18.7611 7.76684L19.5915 8.63322C20.1171 8.12923 20.5226 7.63485 20.7602 6.96767C20.9918 6.31248 21.0398 5.55411 20.9738 4.56053L19.7763 4.63973ZM19.7763 9.02441V8.15083H18.5763V9.02561H19.7763V9.02441ZM11.3885 8.24923V9.4H12.5885V8.24923H11.3885ZM11.3885 9.4V9.99998H12.5885V9.4H11.3885ZM15.6304 4.00015C15.0727 4.00046 14.5205 4.11062 14.0054 4.32433C13.4903 4.53803 13.0223 4.85111 12.6282 5.24567C12.2341 5.64023 11.9216 6.10856 11.7084 6.62391C11.4953 7.13926 11.3858 7.69155 11.3861 8.24923H12.5861C12.5857 7.84903 12.6643 7.45269 12.8172 7.08284C12.9701 6.713 13.1943 6.3769 13.4772 6.09375C13.76 5.8106 14.0958 5.58594 14.4655 5.43261C14.8351 5.27927 15.2314 5.20027 15.6316 5.20012V4.00015H15.6304ZM18.5751 9.02441C18.5763 14.2035 14.3848 18.3997 9.21656 18.3997V19.5997C15.0484 19.5997 19.7763 14.8646 19.7763 9.02441H18.5751ZM4.2367 4.81013C4.88948 6.55248 7.33741 9.99998 11.9885 9.99998V8.80001C8.00939 8.80001 5.90585 5.8481 5.35987 4.39014L4.2367 4.81013ZM4.2619 4.33254C3.00554 6.84767 2.81234 9.2884 3.72551 11.3667C4.63629 13.4391 6.59583 15.0326 9.40135 15.9686L9.78174 14.831C7.19582 13.9671 5.56026 12.5607 4.82348 10.8832C4.0891 9.2116 4.1959 7.15126 5.33587 4.86773L4.2619 4.33254ZM9.16616 14.9762C8.44378 15.6998 6.27184 17.1998 3.60072 17.1998V18.3997C6.67983 18.3997 9.14096 16.7006 10.0157 15.8234L9.16616 14.9762ZM18.7047 5.36571C18.3167 4.93547 17.8427 4.59157 17.3133 4.35632C16.7839 4.12107 16.2109 3.99972 15.6316 4.00015V5.20012C16.4968 5.20012 17.2755 5.57331 17.8155 6.17089L18.7047 5.36571ZM18.3495 6.36168C19.3053 6.20552 20.1782 5.725 20.8214 5.00092L19.9287 4.19934C19.4712 4.71622 18.8502 5.06056 18.1695 5.17492L18.3495 6.36168ZM3.26713 18.2989C5.23627 19.6117 7.30021 19.5997 9.21656 19.5997V18.3997C7.26061 18.3997 5.55906 18.3865 3.93431 17.3006L3.26713 18.2989Z" fill="#272727"/>
</svg>
