<svg width="24" height="24" viewBox="0 0 24 24" fill="none" xmlns="http://www.w3.org/2000/svg">
<path d="M22.0195 6.48047C22.6602 7.12109 23.1484 7.84766 23.4844 8.66016C23.8203 9.47266 23.9922 10.3359 24 11.25C24 11.5234 23.9922 11.8516 23.9766 12.2344C23.9609 12.6172 23.9297 13.0312 23.8828 13.4766C23.8359 13.9219 23.7617 14.3789 23.6602 14.8477C23.5586 15.3164 23.4297 15.7812 23.2734 16.2422C23.0391 16.9141 22.7656 17.4609 22.4531 17.8828C22.1406 18.3047 21.8164 18.6367 21.4805 18.8789C21.1445 19.1211 20.8047 19.2852 20.4609 19.3711C20.1172 19.457 19.7969 19.5 19.5 19.5C19.2422 19.5 19.0078 19.457 18.7969 19.3711C18.5859 19.2852 18.3828 19.168 18.1875 19.0195C17.9922 18.8711 17.8125 18.7109 17.6484 18.5391C17.4844 18.3672 17.3164 18.1797 17.1445 17.9766C16.9805 17.7891 16.8203 17.6094 16.6641 17.4375C16.5078 17.2656 16.3398 17.1133 16.1602 16.9805C15.9805 16.8477 15.8008 16.7344 15.6211 16.6406C15.4414 16.5469 15.2305 16.5 14.9883 16.5H9.01172C8.78516 16.5078 8.57812 16.5547 8.39062 16.6406C8.20312 16.7266 8.01953 16.8359 7.83984 16.9688C7.66016 17.1016 7.49609 17.2578 7.34766 17.4375C7.19922 17.6172 7.03516 17.7969 6.85547 17.9766C6.69141 18.1641 6.52734 18.3477 6.36328 18.5273C6.19922 18.707 6.01953 18.8711 5.82422 19.0195C5.62891 19.168 5.42578 19.2812 5.21484 19.3594C5.00391 19.4375 4.76562 19.4844 4.5 19.5C4.20312 19.5 3.88281 19.457 3.53906 19.3711C3.19531 19.2852 2.85547 19.125 2.51953 18.8906C2.18359 18.6562 1.85938 18.3242 1.54688 17.8945C1.23438 17.4648 0.960938 16.9141 0.726562 16.2422C0.570312 15.7891 0.445312 15.3281 0.351562 14.8594C0.257812 14.3906 0.183594 13.9297 0.128906 13.4766C0.0742188 13.0234 0.0390625 12.6094 0.0234375 12.2344C0.0078125 11.8594 0 11.5312 0 11.25C0 10.3438 0.167969 9.48438 0.503906 8.67188C0.839844 7.85938 1.33203 7.12891 1.98047 6.48047C2.61328 5.83984 3.33984 5.35156 4.16016 5.01562C4.98047 4.67969 5.84375 4.50781 6.75 4.5H17.25C18.1562 4.5 19.0156 4.66797 19.8281 5.00391C20.6406 5.33984 21.3711 5.83203 22.0195 6.48047ZM21.8555 15.75C22.0039 15.3359 22.1211 14.9062 22.207 14.4609C22.293 14.0156 22.3555 13.5898 22.3945 13.1836C22.4336 12.7773 22.4609 12.4023 22.4766 12.0586C22.4922 11.7148 22.5 11.4453 22.5 11.25C22.5 10.5234 22.3633 9.84375 22.0898 9.21094C21.8164 8.57812 21.4414 8.02344 20.9648 7.54688C20.4883 7.07031 19.9336 6.69531 19.3008 6.42188C18.668 6.14844 17.9844 6.00781 17.25 6H6.75C6.02344 6 5.34375 6.13672 4.71094 6.41016C4.07812 6.68359 3.52344 7.05859 3.04688 7.53516C2.57031 8.01172 2.19531 8.56641 1.92188 9.19922C1.64844 9.83203 1.50781 10.5156 1.5 11.25C1.5 11.4531 1.50391 11.7227 1.51172 12.0586C1.51953 12.3945 1.54688 12.7656 1.59375 13.1719C1.64062 13.5781 1.70703 14.0078 1.79297 14.4609C1.87891 14.9141 1.99609 15.3438 2.14453 15.75C2.33984 16.3125 2.55469 16.7461 2.78906 17.0508C3.02344 17.3555 3.25 17.5781 3.46875 17.7188C3.6875 17.8594 3.89062 17.9414 4.07812 17.9648C4.26562 17.9883 4.40625 18 4.5 18C4.67188 18 4.85938 17.8984 5.0625 17.6953C5.26562 17.4922 5.48438 17.2578 5.71875 16.9922C5.90625 16.7734 6.10547 16.5508 6.31641 16.3242C6.52734 16.0977 6.76562 15.8867 7.03125 15.6914C7.29688 15.4961 7.58984 15.3359 7.91016 15.2109C8.23047 15.0859 8.58594 15.0156 8.97656 15H15.0234C15.4141 15.0156 15.7695 15.0859 16.0898 15.2109C16.4102 15.3359 16.6992 15.4922 16.957 15.6797C17.2148 15.8672 17.4531 16.0781 17.6719 16.3125C17.8906 16.5469 18.0938 16.7734 18.2812 16.9922C18.5078 17.25 18.7227 17.4805 18.9258 17.6836C19.1289 17.8867 19.3203 17.9922 19.5 18C19.5938 18 19.7305 17.9883 19.9102 17.9648C20.0898 17.9414 20.293 17.8594 20.5195 17.7188C20.7461 17.5781 20.9766 17.3555 21.2109 17.0508C21.4453 16.7461 21.6602 16.3125 21.8555 15.75ZM6 10.5H7.5V12H6V13.5H4.5V12H3V10.5H4.5V9H6V10.5ZM19.5 12C19.7109 12 19.9062 12.0391 20.0859 12.1172C20.2656 12.1953 20.4219 12.3008 20.5547 12.4336C20.6875 12.5664 20.7969 12.7266 20.8828 12.9141C20.9688 13.1016 21.0078 13.2969 21 13.5C21 13.7109 20.9609 13.9062 20.8828 14.0859C20.8047 14.2656 20.6992 14.4219 20.5664 14.5547C20.4336 14.6875 20.2734 14.7969 20.0859 14.8828C19.8984 14.9688 19.7031 15.0078 19.5 15C19.2891 15 19.0938 14.9609 18.9141 14.8828C18.7344 14.8047 18.5781 14.6992 18.4453 14.5664C18.3125 14.4336 18.2031 14.2734 18.1172 14.0859C18.0312 13.8984 17.9922 13.7031 18 13.5C18 13.2891 18.0391 13.0938 18.1172 12.9141C18.1953 12.7344 18.3008 12.5781 18.4336 12.4453C18.5664 12.3125 18.7266 12.2031 18.9141 12.1172C19.1016 12.0312 19.2969 11.9922 19.5 12ZM16.5 9C16.7109 9 16.9062 9.03906 17.0859 9.11719C17.2656 9.19531 17.4219 9.30078 17.5547 9.43359C17.6875 9.56641 17.7969 9.72656 17.8828 9.91406C17.9688 10.1016 18.0078 10.2969 18 10.5C18 10.7109 17.9609 10.9062 17.8828 11.0859C17.8047 11.2656 17.6992 11.4219 17.5664 11.5547C17.4336 11.6875 17.2734 11.7969 17.0859 11.8828C16.8984 11.9688 16.7031 12.0078 16.5 12C16.2891 12 16.0938 11.9609 15.9141 11.8828C15.7344 11.8047 15.5781 11.6992 15.4453 11.5664C15.3125 11.4336 15.2031 11.2734 15.1172 11.0859C15.0312 10.8984 14.9922 10.7031 15 10.5C15 10.2891 15.0391 10.0938 15.1172 9.91406C15.1953 9.73438 15.3008 9.57812 15.4336 9.44531C15.5664 9.3125 15.7266 9.20312 15.9141 9.11719C16.1016 9.03125 16.2969 8.99219 16.5 9Z" fill="#272727"/>
</svg>
