<svg width="24" height="24" viewBox="0 0 24 24" fill="none" xmlns="http://www.w3.org/2000/svg">
<path d="M20.7905 6.06546L8.12126 9.20946H21.3033C21.4881 9.20946 21.6653 9.27268 21.7959 9.3852C21.9266 9.49772 22 9.65033 22 9.80946V18.2095C22 19.0051 21.633 19.7682 20.9797 20.3308C20.3264 20.8934 19.4403 21.2095 18.5164 21.2095H5.97535C5.05192 21.2088 4.16656 20.8925 3.51386 20.3299C2.86116 19.7674 2.49452 19.0047 2.49452 18.2095V9.89466L2.1364 8.82306C2.00962 8.44446 1.97069 8.04806 2.02183 7.6565C2.07297 7.26494 2.21318 6.88589 2.43445 6.54101C2.65572 6.19612 2.95372 5.89214 3.31142 5.64645C3.66913 5.40075 4.07953 5.21815 4.5192 5.10906L16.5683 2.11746C17.008 2.00828 17.4683 1.97476 17.923 2.0188C18.3776 2.06284 18.8178 2.18358 19.2183 2.37413C19.6188 2.56469 19.9717 2.82131 20.257 3.12936C20.5424 3.43741 20.7544 3.79084 20.8811 4.16946L21.267 5.32146C21.2926 5.39726 21.3006 5.47666 21.2904 5.55511C21.2803 5.63356 21.2523 5.70951 21.208 5.77863C21.1638 5.84774 21.1041 5.90865 21.0324 5.95787C20.9608 6.00709 20.8786 6.04365 20.7905 6.06546ZM3.66501 9.06546L4.51084 8.85546L6.52019 5.86146L4.90379 6.26346C4.37165 6.39568 3.9222 6.70436 3.65414 7.12173C3.38608 7.53909 3.32133 8.03102 3.47411 8.48946L3.66641 9.06546H3.66501ZM6.44076 8.37666L9.39487 7.64226L11.4056 4.64586L8.44454 5.38146C8.43569 5.39864 8.42592 5.41546 8.41528 5.43186L6.44215 8.37786L6.44076 8.37666ZM14.2817 6.43026L16.291 3.43266L13.3286 4.16826C13.3179 4.19004 13.3058 4.21128 13.2923 4.23186L11.329 7.16466L14.2831 6.43146L14.2817 6.43026ZM18.0217 3.24786C18.0131 3.26256 18.0038 3.27697 17.9938 3.29106L16.2116 5.95026L19.7329 5.07666L19.5392 4.50066C19.4372 4.19488 19.2429 3.91784 18.976 3.69777C18.7092 3.4777 18.3809 3.32246 18.0217 3.24786ZM3.88796 10.4095V18.2095C3.88796 18.6869 4.10818 19.1447 4.50016 19.4823C4.89214 19.8198 5.42379 20.0095 5.97814 20.0095H18.5192C19.0735 20.0095 19.6052 19.8198 19.9971 19.4823C20.3891 19.1447 20.6093 18.6869 20.6093 18.2095V10.4095H3.88796Z" fill="#272727"/>
</svg>
