<svg width="24" height="24" viewBox="0 0 24 24" fill="none" xmlns="http://www.w3.org/2000/svg">
<path d="M21 6.73001C20.98 6.73001 20.95 6.73001 20.92 6.73001C15.63 6.20001 10.35 6.00001 5.12 6.53001L3.08 6.73001C2.66 6.77001 2.29 6.47001 2.25 6.05001C2.21 5.63001 2.51 5.27001 2.92 5.23001L4.96 5.03001C10.28 4.49001 15.67 4.70001 21.07 5.23001C21.48 5.27001 21.78 5.64001 21.74 6.05001C21.71 6.44001 21.38 6.73001 21 6.73001Z"/>
<path d="M8.5 5.72C8.46 5.72 8.42 5.72 8.37 5.71C7.97 5.64 7.69 5.25 7.76 4.85L7.98 3.54C8.14 2.58 8.36 1.25 10.69 1.25H13.31C15.65 1.25 15.87 2.63 16.02 3.55L16.24 4.85C16.31 5.26 16.03 5.65 15.63 5.71C15.22 5.78 14.83 5.5 14.77 5.1L14.55 3.8C14.41 2.93 14.38 2.76 13.32 2.76H10.7C9.64 2.76 9.62 2.9 9.47 3.79L9.24 5.09C9.18 5.46 8.86 5.72 8.5 5.72Z"/>
<path d="M15.21 22.75H8.79C5.3 22.75 5.16 20.82 5.05 19.26L4.4 9.19C4.37 8.78 4.69 8.42 5.1 8.39C5.52 8.37 5.87 8.68 5.9 9.09L6.55 19.16C6.66 20.68 6.7 21.25 8.79 21.25H15.21C17.31 21.25 17.35 20.68 17.45 19.16L18.1 9.09C18.13 8.68 18.49 8.37 18.9 8.39C19.31 8.42 19.63 8.77 19.6 9.19L18.95 19.26C18.84 20.82 18.7 22.75 15.21 22.75Z"/>
</svg>
