<svg width="24" height="24" viewBox="0 0 24 24" fill="none" xmlns="http://www.w3.org/2000/svg">
<path d="M10.8 22.1C10.51 22.1 10.22 22.05 9.95004 21.95C8.70004 21.54 7.90004 20.16 8.18004 18.88L8.67004 15.73C8.68004 15.66 8.68004 15.56 8.61004 15.48C8.56004 15.43 8.49004 15.4 8.41004 15.4H4.41004C3.43004 15.4 2.58004 14.99 2.08004 14.28C1.59004 13.59 1.49004 12.68 1.81004 11.8L4.20004 4.52002C4.57004 3.07002 6.12004 1.90002 7.72004 1.90002H11.52C12.08 1.90002 13.3 2.07002 13.95 2.72002L16.98 5.06002L16.06 6.25002L12.96 3.85002C12.71 3.60002 12.08 3.40002 11.52 3.40002H7.72004C6.82004 3.40002 5.85004 4.12002 5.65004 4.93002L3.23004 12.28C3.07004 12.72 3.10004 13.12 3.31004 13.41C3.53004 13.72 3.93004 13.9 4.42004 13.9H8.42004C8.94004 13.9 9.42004 14.12 9.75004 14.5C10.09 14.89 10.24 15.41 10.16 15.95L9.66004 19.16C9.54004 19.72 9.92004 20.35 10.46 20.53C10.94 20.71 11.58 20.45 11.8 20.13L15.9 14.03L17.14 14.87L13.04 20.97C12.57 21.67 11.68 22.1 10.8 22.1Z" fill="#272727"/>
<path d="M19.6201 18.1H18.6201C16.7701 18.1 15.8701 17.23 15.8701 15.45V5.65C15.8701 3.87 16.7701 3 18.6201 3H19.6201C21.4701 3 22.3701 3.87 22.3701 5.65V15.45C22.3701 17.23 21.4701 18.1 19.6201 18.1ZM18.6201 4.5C17.5301 4.5 17.3701 4.76 17.3701 5.65V15.45C17.3701 16.34 17.5301 16.6 18.6201 16.6H19.6201C20.7101 16.6 20.8701 16.34 20.8701 15.45V5.65C20.8701 4.76 20.7101 4.5 19.6201 4.5H18.6201Z" fill="#272727"/>
</svg>
