<svg width="24" height="24" viewBox="0 0 24 24" fill="none" xmlns="http://www.w3.org/2000/svg">
<path fill-rule="evenodd" clip-rule="evenodd" d="M18.2121 5.78795C17.547 5.12313 16.645 4.74967 15.7046 4.74967C14.7642 4.74967 13.8622 5.12313 13.1971 5.78795L10.5301 8.45495L9.4701 7.39495L12.1361 4.72795C13.0825 3.78193 14.3659 3.25049 15.7041 3.25049C17.0423 3.25049 18.3257 3.78193 19.2721 4.72795C19.7405 5.196 20.112 5.75176 20.3655 6.36346C20.619 6.97515 20.7495 7.63081 20.7495 8.29295C20.7495 8.9551 20.619 9.61075 20.3655 10.2224C20.112 10.8341 19.7405 11.3899 19.2721 11.858L16.6001 14.53L15.5401 13.47L18.2131 10.796C18.542 10.4671 18.8029 10.0767 18.9809 9.64705C19.1588 9.21736 19.2504 8.75682 19.2503 8.29175C19.2502 7.82667 19.1585 7.36616 18.9803 6.93655C18.8022 6.50694 18.5411 6.11664 18.2121 5.78795ZM15.5301 9.52995L9.5301 15.53L8.4701 14.47L14.4701 8.46995L15.5301 9.52995ZM8.4611 10.53L5.7871 13.204C5.45819 13.5328 5.1973 13.9232 5.01934 14.3529C4.84137 14.7825 4.74982 15.2431 4.74991 15.7082C4.75 16.1732 4.84174 16.6337 5.01988 17.0634C5.19801 17.493 5.45906 17.8833 5.7881 18.212C6.4532 18.8765 7.35492 19.2497 8.2951 19.2497C9.23528 19.2497 10.137 18.8765 10.8021 18.212L13.4691 15.54L14.5311 16.6L11.8641 19.272C10.9175 20.2177 9.63419 20.749 8.2961 20.749C6.95801 20.749 5.67466 20.2177 4.7281 19.272C4.25974 18.8039 3.88819 18.2481 3.6347 17.6364C3.38121 17.0248 3.25073 16.3691 3.25073 15.707C3.25073 15.0448 3.38121 14.3892 3.6347 13.7775C3.88819 13.1658 4.25974 12.61 4.7281 12.142L7.4001 9.46995L8.4611 10.53Z" fill="#333333"/>
</svg>
