<svg width="24" height="24" viewBox="0 0 24 24" fill="none" xmlns="http://www.w3.org/2000/svg">
<path d="M13.1802 18.7009C12.0102 18.7009 11.0202 17.9809 10.6502 16.8709L9.95023 14.8009C9.84023 14.4409 9.56023 14.1709 9.22023 14.0609L7.14023 13.3609C6.02023 12.9809 5.30023 11.9709 5.32023 10.7909C5.34023 9.6109 6.08023 8.62091 7.21023 8.27091L14.7402 5.9309C15.6902 5.6409 16.7202 5.89091 17.4202 6.60091C18.1202 7.31091 18.3702 8.33091 18.0802 9.28091L15.7402 16.8209C15.3902 17.9509 14.4002 18.6909 13.2102 18.7109C13.2002 18.7009 13.1902 18.7009 13.1802 18.7009ZM15.5202 7.30091C15.4002 7.30091 15.2902 7.32091 15.1702 7.35091L7.63023 9.7009C7.02023 9.8909 6.80023 10.3909 6.80023 10.8109C6.79023 11.2209 7.00023 11.7409 7.60023 11.9409L9.68023 12.6309C10.4802 12.8909 11.1102 13.5209 11.3702 14.3309L12.0602 16.3909C12.2602 16.9909 12.7302 17.1809 13.1902 17.2009C13.6002 17.2009 14.1102 16.9809 14.3002 16.3709L16.6402 8.83091C16.7702 8.41091 16.6602 7.97091 16.3502 7.66091C16.1202 7.42091 15.8302 7.30091 15.5202 7.30091Z" fill="#6E7072"/>
<path d="M15 22.75H9C3.57 22.75 1.25 20.43 1.25 15V9C1.25 3.57 3.57 1.25 9 1.25H15C20.43 1.25 22.75 3.57 22.75 9V15C22.75 20.43 20.43 22.75 15 22.75ZM9 2.75C4.39 2.75 2.75 4.39 2.75 9V15C2.75 19.61 4.39 21.25 9 21.25H15C19.61 21.25 21.25 19.61 21.25 15V9C21.25 4.39 19.61 2.75 15 2.75H9Z" fill="#6E7072"/>
</svg>
