<svg width="24" height="24" viewBox="0 0 24 24" fill="none" xmlns="http://www.w3.org/2000/svg">
<path d="M12 15.75C9.93 15.75 8.25 14.07 8.25 12C8.25 9.93 9.93 8.25 12 8.25C14.07 8.25 15.75 9.93 15.75 12C15.75 14.07 14.07 15.75 12 15.75ZM12 9.75C10.76 9.75 9.75 10.76 9.75 12C9.75 13.24 10.76 14.25 12 14.25C13.24 14.25 14.25 13.24 14.25 12C14.25 10.76 13.24 9.75 12 9.75Z" fill="white"/>
<path d="M15.21 22.1902C15 22.1902 14.79 22.1602 14.58 22.1102C13.96 21.9402 13.44 21.5502 13.11 21.0002L12.99 20.8002C12.4 19.7802 11.59 19.7802 11 20.8002L10.89 20.9902C10.56 21.5502 10.04 21.9502 9.42 22.1102C8.79 22.2802 8.14 22.1902 7.59 21.8602L5.87 20.8702C5.26 20.5202 4.82 19.9502 4.63 19.2602C4.45 18.5702 4.54 17.8602 4.89 17.2502C5.18 16.7402 5.26 16.2802 5.09 15.9902C4.92 15.7002 4.49 15.5302 3.9 15.5302C2.44 15.5302 1.25 14.3402 1.25 12.8802V11.1202C1.25 9.66029 2.44 8.47029 3.9 8.47029C4.49 8.47029 4.92 8.30029 5.09 8.01029C5.26 7.72029 5.19 7.26029 4.89 6.75029C4.54 6.14029 4.45 5.42029 4.63 4.74029C4.81 4.05029 5.25 3.48029 5.87 3.13029L7.6 2.14029C8.73 1.47029 10.22 1.86029 10.9 3.01029L11.02 3.21029C11.61 4.23029 12.42 4.23029 13.01 3.21029L13.12 3.02029C13.8 1.86029 15.29 1.47029 16.43 2.15029L18.15 3.14029C18.76 3.49029 19.2 4.06029 19.39 4.75029C19.57 5.44029 19.48 6.15029 19.13 6.76029C18.84 7.27029 18.76 7.73029 18.93 8.02029C19.1 8.31029 19.53 8.48029 20.12 8.48029C21.58 8.48029 22.77 9.67029 22.77 11.1302V12.8902C22.77 14.3502 21.58 15.5402 20.12 15.5402C19.53 15.5402 19.1 15.7102 18.93 16.0002C18.76 16.2902 18.83 16.7502 19.13 17.2602C19.48 17.8702 19.58 18.5902 19.39 19.2702C19.21 19.9602 18.77 20.5302 18.15 20.8802L16.42 21.8702C16.04 22.0802 15.63 22.1902 15.21 22.1902ZM12 18.4902C12.89 18.4902 13.72 19.0502 14.29 20.0402L14.4 20.2302C14.52 20.4402 14.72 20.5902 14.96 20.6502C15.2 20.7102 15.44 20.6802 15.64 20.5602L17.37 19.5602C17.63 19.4102 17.83 19.1602 17.91 18.8602C17.99 18.5602 17.95 18.2502 17.8 17.9902C17.23 17.0102 17.16 16.0002 17.6 15.2302C18.04 14.4602 18.95 14.0202 20.09 14.0202C20.73 14.0202 21.24 13.5102 21.24 12.8702V11.1102C21.24 10.4802 20.73 9.96029 20.09 9.96029C18.95 9.96029 18.04 9.52029 17.6 8.75029C17.16 7.98029 17.23 6.97029 17.8 5.99029C17.95 5.73029 17.99 5.42029 17.91 5.12029C17.83 4.82029 17.64 4.58029 17.38 4.42029L15.65 3.43029C15.22 3.17029 14.65 3.32029 14.39 3.76029L14.28 3.95029C13.71 4.94029 12.88 5.50029 11.99 5.50029C11.1 5.50029 10.27 4.94029 9.7 3.95029L9.59 3.75029C9.34 3.33029 8.78 3.18029 8.35 3.43029L6.62 4.43029C6.36 4.58029 6.16 4.83029 6.08 5.13029C6 5.43029 6.04 5.74029 6.19 6.00029C6.76 6.98029 6.83 7.99029 6.39 8.76029C5.95 9.53029 5.04 9.97029 3.9 9.97029C3.26 9.97029 2.75 10.4802 2.75 11.1202V12.8802C2.75 13.5102 3.26 14.0302 3.9 14.0302C5.04 14.0302 5.95 14.4702 6.39 15.2402C6.83 16.0102 6.76 17.0202 6.19 18.0002C6.04 18.2602 6 18.5702 6.08 18.8702C6.16 19.1702 6.35 19.4102 6.61 19.5702L8.34 20.5602C8.55 20.6902 8.8 20.7202 9.03 20.6602C9.27 20.6002 9.47 20.4402 9.6 20.2302L9.71 20.0402C10.28 19.0602 11.11 18.4902 12 18.4902Z" fill="white"/>
</svg>
