<svg width="24" height="24" viewBox="0 0 24 24" fill="none" xmlns="http://www.w3.org/2000/svg">
<path fill-rule="evenodd" clip-rule="evenodd" d="M12.9898 2.87425C13.5358 2.38848 14.2919 2.25 15.0988 2.25H18.9012C19.7081 2.25 20.4642 2.38848 21.0102 2.87425C21.5787 3.37993 21.75 4.1051 21.75 4.8657V9.14361C21.75 9.90365 21.579 10.63 21.0091 11.1348C20.462 11.6197 19.7054 11.7547 18.8989 11.7499H15.0988C14.2946 11.7499 13.5378 11.6148 12.9909 11.1301C12.4206 10.6248 12.25 9.89794 12.25 9.13418V4.8657C12.25 4.1051 12.4213 3.37993 12.9898 2.87425ZM13.9867 3.995C13.8799 4.09002 13.75 4.29769 13.75 4.8657V9.13418C13.75 9.70845 13.8806 9.91441 13.9856 10.0074C14.114 10.1212 14.4066 10.2499 15.0988 10.2499H18.9059C19.595 10.2542 19.8868 10.1252 20.0144 10.0122C20.1199 9.91869 20.25 9.71217 20.25 9.14361V4.8657C20.25 4.29769 20.1201 4.09002 20.0133 3.995C19.8841 3.88007 19.5907 3.75 18.9012 3.75H15.0988C14.4093 3.75 14.1159 3.88007 13.9867 3.995Z" />
<path fill-rule="evenodd" clip-rule="evenodd" d="M12.9579 12.9579C13.5045 12.4113 14.2755 12.25 15.0988 12.25H18.9012C19.7245 12.25 20.4955 12.4113 21.0421 12.9579C21.5887 13.5045 21.75 14.2755 21.75 15.0988V18.9012C21.75 19.7245 21.5887 20.4955 21.0421 21.0421C20.4955 21.5887 19.7245 21.75 18.9012 21.75H15.0988C14.2755 21.75 13.5045 21.5887 12.9579 21.0421C12.4113 20.4955 12.25 19.7245 12.25 18.9012V15.0988C12.25 14.2755 12.4113 13.5045 12.9579 12.9579ZM14.0186 14.0186C13.8899 14.1472 13.75 14.4257 13.75 15.0988V18.9012C13.75 19.5743 13.8899 19.8528 14.0186 19.9814C14.1472 20.1101 14.4257 20.25 15.0988 20.25H18.9012C19.5743 20.25 19.8528 20.1101 19.9814 19.9814C20.1101 19.8528 20.25 19.5743 20.25 18.9012V15.0988C20.25 14.4257 20.1101 14.1472 19.9814 14.0186C19.8528 13.8899 19.5743 13.75 18.9012 13.75H15.0988C14.4257 13.75 14.1472 13.8899 14.0186 14.0186Z" />
<path fill-rule="evenodd" clip-rule="evenodd" d="M2.98976 2.87425C3.53585 2.38848 4.29189 2.25 5.09882 2.25H8.90118C9.70811 2.25 10.4642 2.38848 11.0102 2.87425C11.5787 3.37993 11.75 4.1051 11.75 4.8657V9.14361C11.75 9.90365 11.579 10.63 11.0091 11.1348C10.462 11.6197 9.70536 11.7547 8.89895 11.7499H5.09882C4.29456 11.7499 3.53779 11.6148 2.99085 11.1301C2.42056 10.6248 2.25 9.89794 2.25 9.13418V4.8657C2.25 4.1051 2.42128 3.37992 2.98976 2.87425ZM3.98671 3.995C3.87989 4.09002 3.75 4.29769 3.75 4.8657V9.13418C3.75 9.70845 3.88062 9.91441 3.98562 10.0074C4.11397 10.1212 4.40661 10.2499 5.09882 10.2499H8.9059C9.59502 10.2542 9.88681 10.1252 10.0144 10.0122C10.1199 9.91869 10.25 9.71217 10.25 9.14361V4.8657C10.25 4.29769 10.1201 4.09002 10.0133 3.995C9.88408 3.88007 9.59071 3.75 8.90118 3.75H5.09882C4.40929 3.75 4.11592 3.88007 3.98671 3.995Z" />
<path fill-rule="evenodd" clip-rule="evenodd" d="M2.95791 12.9579C3.50453 12.4113 4.27547 12.25 5.09882 12.25H8.90118C9.72453 12.25 10.4955 12.4113 11.0421 12.9579C11.5887 13.5045 11.75 14.2755 11.75 15.0988V18.9012C11.75 19.7245 11.5887 20.4955 11.0421 21.0421C10.4955 21.5887 9.72453 21.75 8.90118 21.75H5.09882C4.27547 21.75 3.50453 21.5887 2.95791 21.0421C2.41128 20.4955 2.25 19.7245 2.25 18.9012V15.0988C2.25 14.2755 2.41128 13.5045 2.95791 12.9579ZM4.01857 14.0186C3.8899 14.1472 3.75 14.4257 3.75 15.0988V18.9012C3.75 19.5743 3.8899 19.8528 4.01857 19.9814C4.14723 20.1101 4.42571 20.25 5.09882 20.25H8.90118C9.5743 20.25 9.85277 20.1101 9.98143 19.9814C10.1101 19.8528 10.25 19.5743 10.25 18.9012V15.0988C10.25 14.4257 10.1101 14.1472 9.98143 14.0186C9.85277 13.8899 9.5743 13.75 8.90118 13.75H5.09882C4.42571 13.75 4.14723 13.8899 4.01857 14.0186Z" />
</svg>
