<svg width="24" height="24" viewBox="0 0 24 24" fill="none" xmlns="http://www.w3.org/2000/svg">
<path d="M3.25365 18.7562L3.25359 18.758L3.24972 19.002C3.2502 19.2003 3.32916 19.3903 3.46938 19.5305C3.61003 19.6712 3.8008 19.7502 3.99971 19.7502C4.19863 19.7502 4.38939 19.6712 4.53004 19.5305C4.6707 19.3899 4.74971 19.1991 4.74971 19.0002C4.74965 17.3831 5.37634 15.829 6.49811 14.6643C7.61988 13.4996 9.14941 12.815 10.7653 12.7544L10.7703 12.7542L10.9953 12.7502L10.9997 12.7502H18.1887L14.4726 16.4709C14.403 16.5406 14.3477 16.6233 14.31 16.7144C14.2723 16.8054 14.253 16.903 14.253 17.0015C14.253 17.1 14.2725 17.1975 14.3102 17.2885C14.348 17.3795 14.4032 17.4622 14.4729 17.5319C14.5426 17.6015 14.6253 17.6567 14.7164 17.6944C14.8074 17.7321 14.905 17.7514 15.0035 17.7514C15.102 17.7514 15.1995 17.7319 15.2905 17.6942C15.3816 17.6565 15.4642 17.6012 15.5339 17.5315L20.5308 12.5276C20.6712 12.387 20.75 12.1964 20.75 11.9977C20.75 11.7991 20.6712 11.6085 20.5309 11.4679L15.5329 6.46998C15.3923 6.32924 15.2014 6.25007 15.0025 6.25C14.8035 6.24993 14.6127 6.3289 14.4719 6.46954C14.3312 6.61018 14.2521 6.80097 14.252 6.99994C14.2519 7.1989 14.3309 7.38975 14.4716 7.53049L18.1935 11.2502H10.9997C8.98624 11.2502 7.05181 12.0339 5.606 13.4352C4.16064 14.8361 3.31703 16.7443 3.25365 18.7562Z" fill="#272727"/>
</svg>
