<svg width="22" height="18" viewBox="0 0 22 18" fill="none" xmlns="http://www.w3.org/2000/svg">
<path d="M11.55 17.5906C10.76 17.5906 9.89 17.3106 9.02 16.7606L6.1 14.9306C5.9 14.8106 5.67 14.7406 5.44 14.7406H4C1.58 14.7406 0.25 13.4106 0.25 10.9906V6.99059C0.25 4.57059 1.58 3.24059 4 3.24059H5.43C5.66 3.24059 5.89 3.17059 6.09 3.05059L9.01 1.22059C10.47 0.310594 11.89 0.140594 13.01 0.760594C14.13 1.38059 14.74 2.67059 14.74 4.40059V13.5706C14.74 15.2906 14.12 16.5906 13.01 17.2106C12.57 17.4706 12.07 17.5906 11.55 17.5906ZM4 4.75059C2.42 4.75059 1.75 5.42059 1.75 7.00059V11.0006C1.75 12.5806 2.42 13.2506 4 13.2506H5.43C5.95 13.2506 6.45 13.3906 6.89 13.6706L9.81 15.5006C10.77 16.1006 11.68 16.2606 12.29 15.9206C12.9 15.5806 13.25 14.7306 13.25 13.6006V4.41059C13.25 3.27059 12.9 2.42059 12.29 2.09059C11.68 1.75059 10.77 1.90059 9.81 2.51059L6.88 4.33059C6.45 4.61059 5.94 4.75059 5.43 4.75059H4Z" fill="white"/>
<path d="M17 13.7506C16.84 13.7506 16.69 13.7006 16.55 13.6006C16.22 13.3506 16.15 12.8806 16.4 12.5506C17.97 10.4606 17.97 7.54059 16.4 5.45059C16.15 5.12059 16.22 4.65059 16.55 4.40059C16.88 4.15059 17.35 4.22059 17.6 4.55059C19.56 7.17059 19.56 10.8306 17.6 13.4506C17.45 13.6506 17.23 13.7506 17 13.7506Z" fill="white"/>
<path d="M18.83 16.2506C18.67 16.2506 18.52 16.2006 18.38 16.1006C18.05 15.8506 17.98 15.3806 18.23 15.0506C20.9 11.4906 20.9 6.51059 18.23 2.95059C17.98 2.62059 18.05 2.15059 18.38 1.90059C18.71 1.65059 19.18 1.72059 19.43 2.05059C22.5 6.14059 22.5 11.8606 19.43 15.9506C19.29 16.1506 19.06 16.2506 18.83 16.2506Z" fill="white"/>
</svg>
