<svg width="18" height="22" viewBox="0 0 18 22" fill="none" xmlns="http://www.w3.org/2000/svg">
<path d="M9.0005 21.75C4.12052 21.75 0.150514 17.78 0.150514 12.9C0.120514 7.17 5.58051 2.4 7.9305 0.61C8.5605 0.13 9.4405 0.13 10.0705 0.61C12.4205 2.43 17.8805 7.26 17.8505 12.91C17.8505 17.78 13.8805 21.75 9.0005 21.75ZM9.0005 1.75C8.9505 1.75 8.8905 1.77 8.8405 1.81C7.1505 3.1 1.63052 7.71 1.66052 12.9C1.66052 16.96 4.96053 20.25 9.0105 20.25C13.0605 20.25 16.3605 16.96 16.3605 12.91C16.3905 7.79 10.8605 3.12 9.1605 1.81C9.1005 1.77 9.0505 1.75 9.0005 1.75Z" fill="#44BAEB"/>
</svg>
