<svg width="24" height="24" viewBox="0 0 24 24" fill="none" xmlns="http://www.w3.org/2000/svg">
<path d="M14.4001 18.4L14.4001 5.6C14.4001 4.72533 15.1254 4 16.0001 4C16.8748 4 17.6001 4.72533 17.6001 5.6L17.6001 18.4C17.6001 19.2747 16.8748 20 16.0001 20C15.1254 20 14.4001 19.2747 14.4001 18.4Z" fill="white"/>
<path d="M6.99995 18.4L6.99995 5.6C6.99995 4.72533 7.72528 4 8.59995 4C9.47462 4 10.2 4.72533 10.2 5.6L10.2 18.4C10.2 19.2747 9.47462 20 8.59995 20C7.72528 20 6.99995 19.2747 6.99995 18.4Z" fill="white"/>
</svg>
