<svg width="24" height="24" viewBox="0 0 24 24" fill="none" xmlns="http://www.w3.org/2000/svg">
<path d="M15 22.75H9C3.57 22.75 1.25 20.43 1.25 15V9C1.25 3.57 3.57 1.25 9 1.25H15C20.43 1.25 22.75 3.57 22.75 9V15C22.75 20.43 20.43 22.75 15 22.75ZM9 2.75C4.39 2.75 2.75 4.39 2.75 9V15C2.75 19.61 4.39 21.25 9 21.25H15C19.61 21.25 21.25 19.61 21.25 15V9C21.25 4.39 19.61 2.75 15 2.75H9Z" fill="#272727"/>
<path d="M6.89001 22.23C6.48001 22.23 6.14001 21.89 6.14001 21.48V2.51999C6.14001 2.10999 6.48001 1.76999 6.89001 1.76999C7.30001 1.76999 7.64001 2.09999 7.64001 2.51999V21.48C7.64001 21.9 7.30001 22.23 6.89001 22.23Z" fill="#272727"/>
<path d="M16.89 22.23C16.48 22.23 16.14 21.89 16.14 21.48V2.51999C16.14 2.10999 16.48 1.76999 16.89 1.76999C17.3 1.76999 17.64 2.10999 17.64 2.51999V21.48C17.64 21.9 17.3 22.23 16.89 22.23Z" fill="#272727"/>
<path d="M6.89004 7.72H2.54004C2.13004 7.72 1.79004 7.38 1.79004 6.97C1.79004 6.56 2.13004 6.22 2.54004 6.22H6.89004C7.30004 6.22 7.64004 6.56 7.64004 6.97C7.64004 7.38 7.30004 7.72 6.89004 7.72Z" fill="#272727"/>
<path d="M6.89003 12.75H2.03003C1.62003 12.75 1.28003 12.41 1.28003 12C1.28003 11.59 1.62003 11.25 2.03003 11.25H6.89003C7.30003 11.25 7.64003 11.59 7.64003 12C7.64003 12.41 7.30003 12.75 6.89003 12.75Z" fill="#272727"/>
<path d="M6.88998 17.72H2.47998C2.06998 17.72 1.72998 17.38 1.72998 16.97C1.72998 16.56 2.06998 16.22 2.47998 16.22H6.88998C7.29998 16.22 7.63998 16.56 7.63998 16.97C7.63998 17.38 7.29998 17.72 6.88998 17.72Z" fill="#272727"/>
<path d="M21.89 7.72H17.54C17.13 7.72 16.79 7.38 16.79 6.97C16.79 6.56 17.13 6.22 17.54 6.22H21.89C22.3 6.22 22.64 6.56 22.64 6.97C22.64 7.38 22.3 7.72 21.89 7.72Z" fill="#272727"/>
<path d="M21.89 12.75H17.03C16.62 12.75 16.28 12.41 16.28 12C16.28 11.59 16.62 11.25 17.03 11.25H21.89C22.3 11.25 22.64 11.59 22.64 12C22.64 12.41 22.3 12.75 21.89 12.75Z" fill="#272727"/>
<path d="M16.97 12.75H5.96997C5.55997 12.75 5.21997 12.41 5.21997 12C5.21997 11.59 5.55997 11.25 5.96997 11.25H16.97C17.38 11.25 17.72 11.59 17.72 12C17.72 12.41 17.39 12.75 16.97 12.75Z" fill="#272727"/>
<path d="M21.89 17.72H17.48C17.07 17.72 16.73 17.38 16.73 16.97C16.73 16.56 17.07 16.22 17.48 16.22H21.89C22.3 16.22 22.64 16.56 22.64 16.97C22.64 17.38 22.3 17.72 21.89 17.72Z" fill="#272727"/>
</svg>
