<svg width="24" height="24" viewBox="0 0 24 24" fill="none" xmlns="http://www.w3.org/2000/svg">
<path d="M15 16.2725C15 16.4706 14.9216 16.6607 14.7819 16.8013C14.7122 16.8715 14.629 16.9275 14.5376 16.9656C14.4462 17.0037 14.3482 17.0233 14.2492 17.0233C14.1502 17.0233 14.0522 17.0037 13.9608 16.9656C13.8695 16.9276 13.7864 16.8717 13.7167 16.8015L9.47703 12.5118L9.47526 12.51C9.40496 12.4403 9.34917 12.3573 9.31109 12.2659C9.27301 12.1745 9.25341 12.0765 9.25341 11.9775C9.25341 11.8785 9.27301 11.7805 9.31109 11.6891C9.34917 11.5977 9.40496 11.5147 9.47526 11.445L13.716 7.20428L13.7167 7.20355C13.7864 7.13326 13.8694 7.07746 13.9608 7.03938C14.0522 7.00131 14.1502 6.9817 14.2492 6.9817C14.3482 6.9817 14.4462 7.00131 14.5376 7.03938C14.629 7.07746 14.7122 7.13346 14.7819 7.20375C14.9216 7.34427 15 7.53436 15 7.7325C15 7.93053 14.9214 8.12075 14.7819 8.26125L11.0669 11.9763L14.7812 15.743L14.7819 15.7438C14.9216 15.8843 15 16.0744 15 16.2725Z" fill="#272727"/>
</svg>
