<svg width="24" height="24" viewBox="0 0 24 24" fill="none" xmlns="http://www.w3.org/2000/svg">
<path fill-rule="evenodd" clip-rule="evenodd" d="M8.51191 1.43056C8.8264 1.16099 9.29988 1.19741 9.56944 1.5119L12 4.34756L14.4306 1.5119C14.7001 1.19741 15.1736 1.16099 15.4881 1.43056C15.8026 1.70012 15.839 2.1736 15.5694 2.48809L13.2021 5.25L16.0549 5.25C17.4223 5.24998 18.5247 5.24996 19.3917 5.36657C20.2918 5.48762 21.05 5.74661 21.6516 6.34897C22.2536 6.95055 22.5124 7.70846 22.6334 8.60828C22.75 9.47532 22.75 10.5777 22.75 11.9451V16.0549C22.75 17.4223 22.75 18.5247 22.6334 19.3917C22.5124 20.2915 22.2536 21.0494 21.6516 21.651C21.05 22.2534 20.2918 22.5124 19.3917 22.6334C18.5247 22.75 17.4223 22.75 16.0549 22.75H7.9451C6.57773 22.75 5.47532 22.75 4.60829 22.6334C3.70832 22.5124 2.9503 22.2535 2.34867 21.6513C1.74653 21.0497 1.4876 20.2917 1.36657 19.3917C1.24996 18.5247 1.24998 17.4223 1.25 16.0549V11.9451C1.24998 10.5778 1.24996 9.47532 1.36657 8.60828C1.4876 7.70831 1.74653 6.95029 2.34867 6.34867C2.9503 5.74653 3.70832 5.4876 4.60829 5.36657C5.47533 5.24996 6.57775 5.24998 7.94513 5.25L10.7979 5.25L8.43056 2.48809C8.16099 2.1736 8.19741 1.70012 8.51191 1.43056ZM8 6.75H15.25V21.25H8C6.5648 21.25 5.56361 21.2484 4.80822 21.1468C4.07434 21.0481 3.68596 20.8676 3.40963 20.591C3.13299 20.3146 2.95188 19.9257 2.85318 19.1918C2.7516 18.4364 2.75 17.4352 2.75 16V12C2.75 10.5648 2.7516 9.56361 2.85318 8.80821C2.95188 8.07433 3.13239 7.68596 3.40903 7.40963C3.68536 7.13299 4.07434 6.95188 4.80822 6.85318C5.56361 6.75159 6.5648 6.75 8 6.75ZM19.1918 21.1468C18.5755 21.2297 17.7957 21.246 16.75 21.2492V6.75078C17.7957 6.75398 18.5755 6.7703 19.1918 6.85318C19.9257 6.95188 20.314 7.13239 20.5904 7.40903C20.867 7.68535 21.0481 8.07433 21.1468 8.80821C21.2484 9.56361 21.25 10.5648 21.25 12V16C21.25 17.4352 21.2484 18.4364 21.1468 19.1918C21.0481 19.9257 20.8676 20.314 20.591 20.5904C20.3146 20.867 19.9257 21.0481 19.1918 21.1468ZM19.7071 15.2929C19.8946 15.4804 20 15.7348 20 16C20 16.2652 19.8946 16.5196 19.7071 16.7071C19.5196 16.8946 19.2652 17 19 17C18.7348 17 18.4804 16.8946 18.2929 16.7071C18.1054 16.5196 18 16.2652 18 16C18 15.7348 18.1054 15.4804 18.2929 15.2929C18.4804 15.1054 18.7348 15 19 15C19.2652 15 19.5196 15.1054 19.7071 15.2929ZM19.7071 11.2929C19.8946 11.4804 20 11.7348 20 12C20 12.2652 19.8946 12.5196 19.7071 12.7071C19.5196 12.8946 19.2652 13 19 13C18.7348 13 18.4804 12.8946 18.2929 12.7071C18.1054 12.5196 18 12.2652 18 12C18 11.7348 18.1054 11.4804 18.2929 11.2929C18.4804 11.1054 18.7348 11 19 11C19.2652 11 19.5196 11.1054 19.7071 11.2929Z" fill="#272727"/>
</svg>
