<svg width="24" height="24" viewBox="0 0 24 24" fill="none" xmlns="http://www.w3.org/2000/svg">
<path d="M20 5.75H14C13.59 5.75 13.25 5.41 13.25 5C13.25 4.59 13.59 4.25 14 4.25H20C20.41 4.25 20.75 4.59 20.75 5C20.75 5.41 20.41 5.75 20 5.75Z" fill="#272727"/>
<path d="M17 8.75H14C13.59 8.75 13.25 8.41 13.25 8C13.25 7.59 13.59 7.25 14 7.25H17C17.41 7.25 17.75 7.59 17.75 8C17.75 8.41 17.41 8.75 17 8.75Z" fill="#272727"/>
<path d="M11.5 21.75C5.85 21.75 1.25 17.15 1.25 11.5C1.25 5.85 5.85 1.25 11.5 1.25C11.91 1.25 12.25 1.59 12.25 2C12.25 2.41 11.91 2.75 11.5 2.75C6.67 2.75 2.75 6.68 2.75 11.5C2.75 16.32 6.67 20.25 11.5 20.25C16.33 20.25 20.25 16.32 20.25 11.5C20.25 11.09 20.59 10.75 21 10.75C21.41 10.75 21.75 11.09 21.75 11.5C21.75 17.15 17.15 21.75 11.5 21.75Z" fill="#272727"/>
<path d="M22 22.7499C21.81 22.7499 21.62 22.6799 21.47 22.5299L19.47 20.5299C19.18 20.2399 19.18 19.7599 19.47 19.4699C19.76 19.1799 20.24 19.1799 20.53 19.4699L22.53 21.4699C22.82 21.7599 22.82 22.2399 22.53 22.5299C22.38 22.6799 22.19 22.7499 22 22.7499Z" fill="#272727"/>
</svg>
