<svg viewBox="0 0 24 24" fill="none" xmlns="http://www.w3.org/2000/svg">
<path d="M2.95206 7.3125C3.01357 7.20734 3.13856 7.16282 3.25089 7.20117L3.29776 7.22266L3.29971 7.22363L11.7499 12.1133L11.9999 12.2588L12.2499 12.1133L20.6503 7.25391L20.6523 7.25293C20.7654 7.18703 20.9223 7.22323 20.998 7.34375C21.0637 7.45739 21.0268 7.61429 20.9052 7.68945L12.1689 12.751C12.0794 12.7911 12.0279 12.8008 11.9999 12.8008C11.9741 12.8008 11.9507 12.7984 11.9296 12.793L11.872 12.7686H11.87L3.04678 7.66211C2.93825 7.59678 2.89568 7.46579 2.93155 7.35742L2.95206 7.3125Z" fill="currentColor" stroke="currentColor"/>
<path d="M12 22.3591C11.59 22.3591 11.25 22.0191 11.25 21.6091V12.5391C11.25 12.1291 11.59 11.7891 12 11.7891C12.41 11.7891 12.75 12.1291 12.75 12.5391V21.6091C12.75 22.0191 12.41 22.3591 12 22.3591Z" fill="currentColor"/>
<path d="M12 22.75C11.12 22.75 10.25 22.56 9.56 22.18L4.22 19.21C2.77 18.41 1.64 16.48 1.64 14.82V9.17C1.64 7.51 2.77 5.59 4.22 4.78L9.56 1.82C10.93 1.06 13.07 1.06 14.44 1.82L19.78 4.79C21.23 5.59 22.36 7.52 22.36 9.18V14.83C22.36 16.49 21.23 18.41 19.78 19.22L14.44 22.18C13.75 22.56 12.88 22.75 12 22.75ZM12 2.75C11.37 2.75 10.75 2.88 10.29 3.13L4.95 6.1C3.99 6.63 3.14 8.07 3.14 9.17V14.82C3.14 15.92 3.99 17.36 4.95 17.9L10.29 20.87C11.2 21.38 12.8 21.38 13.71 20.87L19.05 17.9C20.01 17.36 20.86 15.93 20.86 14.82V9.17C20.86 8.07 20.01 6.63 19.05 6.09L13.71 3.12C13.25 2.88 12.63 2.75 12 2.75Z" fill="currentColor"/>
</svg>
