<svg width="24" height="24" viewBox="0 0 24 24" fill="none" xmlns="http://www.w3.org/2000/svg">
<g clip-path="url(#clip0_138_14309)">
<path d="M22.025 11.9816C22.025 17.5129 17.5375 22.0004 12.0125 22.0004C6.48125 22.0004 2 17.5129 2 11.9816C2 6.45039 6.48125 1.96289 12.0125 1.96289C17.5375 1.96289 22.025 6.45039 22.025 11.9816ZM12.7812 16.3566C11.8875 16.1816 11.3562 15.6629 10 13.6504C9.55 12.9754 9.55 12.9754 9.1125 12.9441C8.46875 12.9004 8.51875 12.7879 8.5375 14.2066C8.5625 15.8191 8.54375 15.7816 9.475 15.9379C9.71875 15.9754 9.7375 15.9941 9.7375 16.1379C9.7375 16.3004 9.7375 16.3004 8.1 16.3129C6.5625 16.3254 6.4625 16.3191 6.43125 16.2254C6.36875 16.0441 6.4625 15.9566 6.8 15.8941C7.18125 15.8254 7.38125 15.6691 7.43125 15.4066C7.45625 15.3066 7.4625 13.9566 7.45 12.4066C7.43125 9.15039 7.46875 9.34414 6.86875 9.21289C6.49375 9.13164 6.375 9.04414 6.425 8.89414C6.4625 8.79414 6.54375 8.78789 8.25 8.75664C10.7875 8.70664 11.2625 8.78789 11.9375 9.38789C12.6438 10.0191 12.7438 10.9816 12.1813 11.7879C11.9313 12.1504 11.4313 12.5379 11.0437 12.6816C10.8625 12.7504 10.7125 12.8254 10.7125 12.8504C10.7125 12.9254 11.2875 13.7441 11.6438 14.1816C12.5938 15.3379 13.1063 15.7879 13.6375 15.9254C13.9688 16.0129 14.0625 16.1066 13.9688 16.2691C13.8687 16.4379 13.3687 16.4754 12.7812 16.3566ZM10.3875 12.2129C11.6375 11.7004 11.7312 9.98164 10.5437 9.47539C10.2375 9.34414 10.1562 9.33789 9.3875 9.33789C8.55625 9.33789 8.55625 9.33789 8.54375 10.7816C8.53125 11.5754 8.5375 12.2629 8.55625 12.3004C8.6125 12.4316 10.0188 12.3629 10.3875 12.2129ZM14.7437 10.4316C13.775 10.2504 13.4563 9.65664 13.5063 8.13164C13.5312 7.28789 13.6 7.05664 13.925 6.70664C14.5 6.08789 15.925 6.14414 16.45 6.80664C16.675 7.08789 16.6562 7.17539 16.3438 7.26914C16.1 7.35039 16.1 7.35039 15.875 7.12539C15.3438 6.61289 14.425 6.80039 14.2625 7.46289C14.1813 7.75664 14.1875 9.00039 14.2687 9.28164C14.4875 10.0754 15.8063 10.0754 16.0312 9.28164C16.1688 8.77539 16.1375 8.73789 15.5312 8.70664C15.2375 8.69414 15.2375 8.69414 15.2375 8.45039C15.2375 8.21289 15.2375 8.21289 15.9375 8.19414C16.8438 8.17539 16.8313 8.16289 16.7875 8.82539C16.7312 9.65664 16.5063 10.0566 15.9625 10.2941C15.6062 10.4441 15.1187 10.5004 14.7437 10.4316Z" fill="#333333"/>
<path d="M12.7812 16.3557C11.8874 16.1807 11.3562 15.6619 9.99994 13.6494C9.54994 12.9744 9.54994 12.9744 9.11244 12.9432C8.46869 12.8994 8.51869 12.7869 8.53744 14.2057C8.56244 15.8182 8.54369 15.7807 9.47494 15.9369C9.71869 15.9744 9.73744 15.9932 9.73744 16.1369C9.73744 16.2994 9.73744 16.2994 8.09994 16.3119C6.56244 16.3244 6.46244 16.3182 6.43119 16.2244C6.36869 16.0432 6.46244 15.9557 6.79994 15.8932C7.18119 15.8244 7.38119 15.6682 7.43119 15.4057C7.45619 15.3057 7.46244 13.9557 7.44994 12.4057C7.43119 9.14944 7.46869 9.34319 6.86869 9.21194C6.49369 9.13069 6.37494 9.04319 6.42494 8.89319C6.46244 8.79319 6.54369 8.78694 8.24994 8.75569C10.7874 8.70569 11.2624 8.78694 11.9374 9.38694C12.6437 10.0182 12.7437 10.9807 12.1812 11.7869C11.9312 12.1494 11.4312 12.5369 11.0437 12.6807C10.8624 12.7494 10.7124 12.8244 10.7124 12.8494C10.7124 12.9244 11.2874 13.7432 11.6437 14.1807C12.5937 15.3369 13.1062 15.7869 13.6374 15.9244C13.9687 16.0119 14.0624 16.1057 13.9687 16.2682C13.8687 16.4369 13.3687 16.4744 12.7812 16.3557ZM10.3874 12.2119C11.6374 11.6994 11.7312 9.98069 10.5437 9.47444C10.2374 9.34319 10.1562 9.33694 9.38744 9.33694C8.55619 9.33694 8.55619 9.33694 8.54369 10.7807C8.53119 11.5744 8.53744 12.2619 8.55619 12.2994C8.61244 12.4307 10.0187 12.3619 10.3874 12.2119ZM14.7437 10.4307C13.7749 10.2494 13.4562 9.65569 13.5062 8.13069C13.5312 7.28694 13.5999 7.05569 13.9249 6.70569C14.4999 6.08694 15.9249 6.14319 16.4499 6.80569C16.6749 7.08694 16.6562 7.17444 16.3437 7.26819C16.0999 7.34944 16.0999 7.34944 15.8749 7.12444C15.3437 6.61194 14.4249 6.79944 14.2624 7.46194C14.1812 7.75569 14.1874 8.99944 14.2687 9.28069C14.4874 10.0744 15.8062 10.0744 16.0312 9.28069C16.1687 8.77444 16.1374 8.73694 15.5312 8.70569C15.2374 8.69319 15.2374 8.69319 15.2374 8.44944C15.2374 8.21194 15.2374 8.21194 15.9374 8.19319C16.8437 8.17444 16.8312 8.16194 16.7874 8.82444C16.7312 9.65569 16.5062 10.0557 15.9624 10.2932C15.6062 10.4432 15.1187 10.4994 14.7437 10.4307Z" fill="white"/>
</g>
<defs>
<clipPath id="clip0_138_14309">
<rect width="20" height="20" fill="white" transform="translate(2 2)"/>
</clipPath>
</defs>
</svg>
