<svg width="24" height="24" viewBox="0 0 24 24" fill="none" xmlns="http://www.w3.org/2000/svg">
<path d="M16.773 8.28769L8.28769 16.773C7.99778 17.0629 7.51694 17.0629 7.22703 16.773C6.93712 16.4831 6.93712 16.0022 7.22703 15.7123L15.7123 7.22703C16.0022 6.93712 16.4831 6.93712 16.773 7.22703C17.0629 7.51695 17.0629 7.99778 16.773 8.28769Z" fill="currentColor"/>
<path d="M16.773 16.773C16.4831 17.0629 16.0022 17.0629 15.7123 16.773L7.22703 8.28768C6.93712 7.99777 6.93712 7.51694 7.22703 7.22702C7.51694 6.93711 7.99778 6.93711 8.28769 7.22702L16.773 15.7123C17.0629 16.0022 17.0629 16.4831 16.773 16.773Z" fill="currentColor"/>
</svg>
