<svg width="24" height="24" viewBox="0 0 24 24" fill="none" xmlns="http://www.w3.org/2000/svg">
<path d="M18.0604 7.05768C18.1517 7.09576 18.2347 7.15155 18.3044 7.22185L18.3124 7.22955C18.3885 7.29978 18.4493 7.38502 18.4908 7.47989C18.5324 7.57477 18.5539 7.67722 18.5539 7.7808C18.5539 7.88437 18.5324 7.98683 18.4908 8.0817C18.4493 8.17658 18.3884 8.26167 18.3123 8.3319L10.1451 16.499L10.1444 16.4997C10.0747 16.57 9.99175 16.6258 9.90036 16.6639C9.80896 16.702 9.71093 16.7216 9.61192 16.7216C9.51291 16.7216 9.41488 16.702 9.32349 16.6639C9.2321 16.6258 9.14914 16.57 9.07942 16.4997L5.23873 12.659L5.23561 12.656C5.16271 12.5856 5.10438 12.5015 5.06398 12.4085C5.02357 12.3155 5.00187 12.2155 5.00012 12.1142C4.99836 12.0128 5.01659 11.9121 5.05376 11.8178C5.09092 11.7235 5.1463 11.6374 5.21673 11.5645C5.28716 11.4916 5.37126 11.4333 5.46423 11.3929C5.5572 11.3524 5.65721 11.3307 5.75857 11.329C5.85992 11.3272 5.96063 11.3455 6.05494 11.3826C6.14857 11.4195 6.23408 11.4744 6.30665 11.5441L9.61176 14.8598L17.2394 7.22185C17.3091 7.15155 17.3921 7.09576 17.4835 7.05768C17.5749 7.0196 17.6729 7 17.7719 7C17.8709 7 17.969 7.0196 18.0604 7.05768Z" fill="#272727"/>
</svg>
