<svg width="24" height="24" viewBox="0 0 24 24" fill="none" xmlns="http://www.w3.org/2000/svg">
<path d="M12.001 2.06104C6.478 2.06104 2 6.53703 2 12.061C2 17.054 5.661 21.193 10.445 21.94V14.95H7.89V12.061H10.446L10.447 9.85804C10.447 7.35204 11.931 5.96203 14.216 5.96203C15.311 5.96203 16.446 6.17204 16.446 6.17204V8.61703H15.193C13.951 8.61703 13.554 9.39404 13.554 10.185L13.557 12.061H16.334L15.89 14.95H13.557V21.94C18.34 21.192 22 17.054 22 12.061C22 6.53703 17.523 2.06104 12.001 2.06104Z" fill="#333333"/>
</svg>
