<svg width="24" height="24" viewBox="0 0 24 24" fill="none" xmlns="http://www.w3.org/2000/svg">
<path d="M21.938 7.9C21.938 7.1 21.739 6.3 21.438 5.5C20.938 4.1 19.938 3 18.538 2.5C17.739 2.2 16.938 2.1 16.138 2H12.039C10.639 2 9.239 2 7.839 2.1C7.039 2.1 6.239 2.3 5.539 2.6C4.239 3.1 3.139 4.1 2.639 5.4C2.339 6.2 2.139 7 2.139 7.9C2.139 9 2.039 9.3 2.039 12C1.939 13.4 1.939 14.7 2.039 16.1C2.039 16.901 2.239 17.701 2.539 18.5C3.039 19.8 4.139 20.9 5.439 21.4C6.239 21.7 7.039 21.799 7.839 21.9C9.239 22 10.639 22 12.039 22C13.439 22 14.839 22 16.138 21.9C16.939 21.9 17.74 21.7 18.538 21.4C19.1936 21.14 19.7891 20.7486 20.2879 20.2499C20.7866 19.7511 21.178 19.1556 21.438 18.5C21.739 17.7 21.836 16.9 21.938 16.1C21.938 15 22.038 14.701 22.038 12C22.038 9.299 21.938 8.9 21.938 7.9ZM20.137 16C20.137 16.6 20.037 17.3 19.838 17.9C19.537 18.798 18.838 19.5 17.938 19.798C17.338 19.999 16.637 20.099 16.038 20.099C14.938 20.099 14.638 20.201 12.038 20.201C10.738 20.201 9.338 20.201 8.038 20.099C7.438 20.099 6.838 19.999 6.138 19.799C5.238 19.499 4.538 18.799 4.238 17.9C3.938 17.299 3.838 16.7 3.838 16C3.838 14.9 3.738 14.6 3.738 12C3.738 10.7 3.738 9.3 3.838 8C3.938 7.4 4.038 6.7 4.138 6.1C4.438 5.2 5.138 4.5 6.038 4.2C6.738 4 7.338 3.9 8.038 3.9C9.138 3.9 9.438 3.8 12.038 3.8C13.338 3.8 14.739 3.8 16.038 3.9C16.638 3.9 17.339 4 17.938 4.2C18.836 4.5 19.538 5.2 19.836 6.1C20.037 6.7 20.137 7.4 20.137 8C20.137 9.1 20.239 9.4 20.239 12C20.238 14.6 20.137 15 20.137 16Z" fill="currentColor"/>
<path d="M12.138 6.9C9.23799 6.9 7.03799 9.2 7.03799 12C7.03799 14.8 9.33799 17.1 12.138 17.1C14.938 17.1 17.239 14.8 17.239 12C17.239 9.2 14.938 6.9 12.138 6.9ZM12.138 15.3C10.338 15.3 8.83799 13.8 8.83799 12C8.83799 10.2 10.338 8.7 12.138 8.7C13.938 8.7 15.338 10.2 15.438 12C15.438 13.8 13.938 15.3 12.138 15.3ZM17.438 5.5C16.739 5.5 16.239 6 16.239 6.7C16.239 7.4 16.739 7.9 17.438 7.9C18.137 7.9 18.637 7.4 18.637 6.7C18.637 6 18.137 5.5 17.438 5.5Z" fill="currentColor"/>
</svg>
