<svg width="28" height="30" viewBox="0 0 28 30" fill="none" xmlns="http://www.w3.org/2000/svg">
<path fill-rule="evenodd" clip-rule="evenodd" d="M2.21407 28.0363C3.20472 29.027 4.54827 29.5836 5.94924 29.5838C6.87703 29.5822 7.7893 29.3365 8.59266 28.8723L24.692 19.6394C25.4935 19.1753 26.159 18.5087 26.6216 17.7064C27.0844 16.9038 27.3281 15.9936 27.3281 15.0671C27.3281 14.1406 27.0844 13.2305 26.6216 12.4279C26.1588 11.6253 25.4931 10.9585 24.6912 10.4944L24.4833 10.3741L16.4999 5.83379L8.59159 1.12795C7.78408 0.661652 6.86755 0.417381 5.93508 0.419942C5.00261 0.422503 4.08744 0.671806 3.2825 1.14253C2.47757 1.61325 1.81155 2.28862 1.3521 3.10005C0.892656 3.91147 0.656144 4.83004 0.666591 5.76245L0.666618 5.76712V24.3005C0.666618 25.7017 1.22325 27.0455 2.21407 28.0363ZM7.33874 26.713L14.8333 22.5005L22.8166 17.7719L23.4415 17.4114C23.8648 17.1671 24.2164 16.8158 24.4609 16.3925C24.7053 15.9693 24.834 15.4892 24.834 15.0005C24.834 14.5117 24.7053 14.0316 24.4609 13.6084C24.2164 13.1851 23.8648 12.8338 23.4415 12.5895L7.3417 3.28965L7.33393 3.28528C6.91188 3.05338 6.43997 2.92709 5.9585 2.9172L5.94344 2.91717C5.4603 2.92472 4.98652 3.05151 4.56419 3.28626L4.55828 3.28961C4.13509 3.53394 3.78369 3.88537 3.53939 4.30858C3.29511 4.73177 3.16655 5.21182 3.16662 5.70045V24.3005C3.16655 24.7891 3.29511 25.2691 3.53939 25.6923C3.78369 26.1155 4.13509 26.467 4.55828 26.7113L4.56118 26.7129C4.98468 26.953 5.46316 27.0791 5.94995 27.0791C6.43674 27.0791 6.91523 26.953 7.33874 26.713Z" fill="#272727"/>
</svg>
