<svg width="72" height="32" viewBox="0 0 72 32" fill="none" xmlns="http://www.w3.org/2000/svg">
<path d="M16.0024 31.9992H19.5241V6.56909C19.5151 6.18608 19.5827 5.80512 19.7232 5.44863C19.8637 5.09214 20.074 4.76732 20.342 4.49324C20.6099 4.21916 20.93 4.00136 21.2835 3.85266C21.6369 3.70396 22.0165 3.62734 22.4 3.62734C22.7835 3.62734 23.1631 3.70396 23.5165 3.85266C23.87 4.00136 24.19 4.21916 24.458 4.49324C24.7259 4.76732 24.9363 5.09214 25.0768 5.44863C25.2172 5.80512 25.2849 6.18608 25.2759 6.56909V32H28.7976V6.56909C28.8211 5.71501 28.6729 4.86488 28.362 4.06896C28.051 3.27304 27.5835 2.5475 26.9871 1.93512C26.3908 1.32274 25.6775 0.835951 24.8897 0.503581C24.1018 0.171211 23.2552 0 22.4 0C21.5447 0 20.6982 0.171211 19.9103 0.503581C19.1224 0.835951 18.4092 1.32274 17.8129 1.93512C17.2165 2.5475 16.749 3.27304 16.438 4.06896C16.1271 4.86488 15.9789 5.71501 16.0024 6.56909V31.9992Z" fill="#F89A01"/>
<path d="M48.8024 31.9992H52.3241V6.56909C52.3151 6.18608 52.3827 5.80512 52.5232 5.44863C52.6637 5.09214 52.874 4.76732 53.142 4.49324C53.4099 4.21916 53.73 4.00136 54.0835 3.85266C54.4369 3.70396 54.8165 3.62734 55.2 3.62734C55.5835 3.62734 55.9631 3.70396 56.3165 3.85266C56.67 4.00136 56.99 4.21916 57.258 4.49324C57.5259 4.76732 57.7363 5.09214 57.8768 5.44863C58.0172 5.80512 58.0849 6.18608 58.0759 6.56909V32H61.5976V6.56909C61.6211 5.71501 61.4729 4.86488 61.162 4.06896C60.851 3.27304 60.3835 2.5475 59.7871 1.93512C59.1908 1.32274 58.4776 0.835951 57.6897 0.503581C56.9018 0.171211 56.0552 0 55.2 0C54.3447 0 53.4982 0.171211 52.7103 0.503581C51.9225 0.835951 51.2092 1.32274 50.6129 1.93512C50.0165 2.5475 49.549 3.27304 49.238 4.06896C48.9271 4.86488 48.7789 5.71501 48.8024 6.56909V31.9992Z" fill="#F89A01"/>
<path d="M68.464 25.3512C68.4723 26.1201 68.1756 26.8609 67.6387 27.4113C67.1019 27.9618 66.3688 28.277 65.6 28.288H65.6584V31.884H65.6C67.3111 31.8623 68.9435 31.1619 70.1383 29.9368C71.333 28.7117 71.9923 27.0623 71.9712 25.3512V0H68.464V25.2912" fill="#F89A01"/>
<path d="M12 19.0743V6.35705C11.9961 4.67796 11.333 3.06827 10.1549 1.87789C8.97682 0.687518 7.37894 0.0126662 5.70859 0V3.49912C6.454 3.51296 7.16429 3.81996 7.68705 4.35428C8.2098 4.88859 8.50335 5.60764 8.50468 6.35705V19.1297C8.50335 19.8791 8.2098 20.5981 7.68705 21.1324C7.16429 21.6667 6.454 21.9737 5.70859 21.9876V25.4859C7.37894 25.4732 8.97682 24.7984 10.1549 23.608C11.333 22.4176 11.9961 20.8079 12 19.1288" fill="#F89A01"/>
<path d="M3.49532 0.0583984V31.9999H0V0.0583984" fill="#F89A01"/>
<path fill-rule="evenodd" clip-rule="evenodd" d="M36.2953 31.9999V25.504H38.5102C39.2386 25.5466 39.9276 25.9046 40.4387 26.4287C40.9756 26.9791 41.2723 27.7199 41.264 28.4888V32H44.7712V28.4888C44.7923 26.7777 44.133 25.1283 42.9383 23.9032C42.8917 23.8554 42.8445 23.8085 42.7966 23.7625C42.8502 23.712 42.9029 23.6605 42.9549 23.608C44.133 22.4176 44.7961 20.8079 44.8 19.1288V6.35705C44.7961 4.67796 44.133 3.06827 42.9549 1.87789C41.7889 0.699735 40.2117 0.0265726 38.56 0.000599072L38.5086 0H32.8V31.9999H36.2953ZM36.2953 3.52V21.984H38.56V21.9862C39.2866 21.9595 39.9763 21.6544 40.487 21.1324C41.0098 20.5981 41.3033 19.8791 41.3047 19.1297V6.35705C41.3033 5.60764 41.0098 4.88859 40.487 4.35428C39.9763 3.83225 39.2866 3.52721 38.56 3.50054V3.52H36.2953Z" fill="#F89A01"/>
</svg>
