<svg width="24" height="24" viewBox="0 0 24 24" fill="none" xmlns="http://www.w3.org/2000/svg">
<path d="M7 17.7495H5C2.58 17.7495 1.25 16.4195 1.25 13.9995V9.99944C1.25 7.57944 2.58 6.24944 5 6.24944H6.43C6.66 6.24944 6.89 6.17944 7.09 6.05944L10.01 4.22944C11.47 3.31944 12.89 3.14944 14.01 3.76944C15.13 4.38944 15.74 5.67944 15.74 7.40944V8.36944C15.74 8.77944 15.4 9.11944 14.99 9.11944C14.58 9.11944 14.24 8.77944 14.24 8.36944V7.40944C14.24 6.26944 13.89 5.41944 13.28 5.08944C12.67 4.74944 11.77 4.89944 10.8 5.50944L7.88 7.32944C7.45 7.60944 6.94 7.74944 6.43 7.74944H5C3.42 7.74944 2.75 8.41944 2.75 9.99944V13.9995C2.75 15.5795 3.42 16.2495 5 16.2495H7C7.41 16.2495 7.75 16.5895 7.75 16.9995C7.75 17.4095 7.41 17.7495 7 17.7495Z" fill="white"/>
<path d="M12.55 20.5895C11.76 20.5895 10.89 20.3095 10.02 19.7595C9.66997 19.5395 9.55997 19.0795 9.77997 18.7295C9.99997 18.3795 10.46 18.2695 10.81 18.4895C11.78 19.0895 12.68 19.2495 13.29 18.9095C13.9 18.5695 14.25 17.7195 14.25 16.5895V12.9495C14.25 12.5395 14.59 12.1995 15 12.1995C15.41 12.1995 15.75 12.5395 15.75 12.9495V16.5895C15.75 18.3095 15.13 19.6095 14.02 20.2295C13.57 20.4695 13.07 20.5895 12.55 20.5895Z" fill="white"/>
<path d="M18 16.7495C17.84 16.7495 17.69 16.6995 17.55 16.5995C17.22 16.3495 17.15 15.8795 17.4 15.5495C18.66 13.8695 18.93 11.6395 18.12 9.70945C17.96 9.32945 18.14 8.88945 18.52 8.72945C18.9 8.56945 19.34 8.74945 19.5 9.12945C20.52 11.5495 20.17 14.3595 18.6 16.4595C18.45 16.6495 18.23 16.7495 18 16.7495Z" fill="white"/>
<path d="M19.83 19.2495C19.67 19.2495 19.52 19.1995 19.38 19.0995C19.05 18.8495 18.98 18.3795 19.23 18.0495C21.37 15.1995 21.84 11.3795 20.46 8.08945C20.3 7.70945 20.48 7.26945 20.86 7.10945C21.25 6.94945 21.68 7.12945 21.84 7.50945C23.43 11.2895 22.89 15.6695 20.43 18.9495C20.29 19.1495 20.06 19.2495 19.83 19.2495Z" fill="white"/>
<path d="M1.99994 22.7495C1.80994 22.7495 1.61994 22.6795 1.46994 22.5295C1.17994 22.2395 1.17994 21.7595 1.46994 21.4695L21.4699 1.46945C21.7599 1.17945 22.2399 1.17945 22.5299 1.46945C22.8199 1.75945 22.8199 2.23945 22.5299 2.52945L2.52994 22.5295C2.37994 22.6795 2.18994 22.7495 1.99994 22.7495Z" fill="white"/>
</svg>
