<svg width="24" height="24" viewBox="0 0 24 24" fill="none" xmlns="http://www.w3.org/2000/svg">
<path d="M7.7092 15C7.51106 15 7.32097 14.9216 7.18045 14.7819C7.11016 14.7122 7.05416 14.629 7.01608 14.5376C6.97801 14.4462 6.9584 14.3482 6.9584 14.2492C6.9584 14.1502 6.97801 14.0522 7.01608 13.9608C7.05413 13.8695 7.11004 13.7864 7.18025 13.7167L11.4699 9.47703L11.4717 9.47526C11.5414 9.40496 11.6244 9.34917 11.7158 9.31109C11.8072 9.27301 11.9052 9.25341 12.0042 9.25341C12.1032 9.25341 12.2012 9.27301 12.2926 9.31109C12.384 9.34917 12.467 9.40496 12.5367 9.47526L16.7774 13.716L16.7782 13.7167C16.8484 13.7864 16.9042 13.8694 16.9423 13.9608C16.9804 14.0522 17 14.1502 17 14.2492C17 14.3482 16.9804 14.4462 16.9423 14.5376C16.9042 14.629 16.8482 14.7122 16.778 14.7819C16.6374 14.9216 16.4473 15 16.2492 15C16.0512 15 15.8609 14.9214 15.7205 14.7819L12.0054 11.0669L8.23867 14.7812L8.23795 14.7819C8.09743 14.9216 7.90734 15 7.7092 15Z" fill="#272727"/>
</svg>
