<svg width="24" height="24" viewBox="0 0 24 24" fill="none" xmlns="http://www.w3.org/2000/svg">
<g clip-path="url(#clip0_138_14304)">
<path fill-rule="evenodd" clip-rule="evenodd" d="M12 22C17.5228 22 22 17.5228 22 12C22 6.47715 17.5228 2 12 2C6.47715 2 2 6.47715 2 12C2 17.5228 6.47715 22 12 22Z" fill="#333333"/>
<path fill-rule="evenodd" clip-rule="evenodd" d="M18.3888 17.8336H15.8776V13.5563C15.8776 12.3836 15.432 11.7282 14.5038 11.7282C13.494 11.7282 12.9664 12.4102 12.9664 13.5563V17.8336H10.5463V9.6854H12.9664V10.783C12.9664 10.783 13.6941 9.43646 15.4232 9.43646C17.1515 9.43646 18.3888 10.4919 18.3888 12.6746V17.8336ZM7.65899 8.61847C6.83463 8.61847 6.16663 7.94522 6.16663 7.1149C6.16663 6.28457 6.83463 5.61133 7.65899 5.61133C8.48336 5.61133 9.15096 6.28457 9.15096 7.1149C9.15096 7.94522 8.48336 8.61847 7.65899 8.61847ZM6.40932 17.8336H8.93294V9.6854H6.40932V17.8336Z" fill="white"/>
</g>
<defs>
<clipPath id="clip0_138_14304">
<rect width="20" height="20" fill="white" transform="translate(2 2)"/>
</clipPath>
</defs>
</svg>
