<svg viewBox="0 0 24 24" fill="none" xmlns="http://www.w3.org/2000/svg">
<path fill-rule="evenodd" clip-rule="evenodd" d="M14.9444 12.5366L15.2414 12.269C16.181 11.5298 16.8668 10.5162 17.2034 9.36904C17.54 8.22194 17.5107 6.99844 17.1196 5.86876C16.7285 4.73908 15.9949 3.75939 15.0211 3.066C14.0473 2.37261 12.8815 2 11.686 2C10.4906 2 9.32481 2.37261 8.35096 3.066C7.37712 3.75939 6.64361 4.73908 6.25249 5.86876C5.86136 6.99844 5.83206 8.22194 6.16868 9.36904C6.50529 10.5162 7.19107 11.5298 8.13062 12.269L8.47074 12.5366L8.06901 12.6976C6.43108 13.3538 5.00194 14.4422 3.93393 15.8467C2.86592 17.2513 2.19908 18.9193 2.00451 20.6731C1.99369 20.7717 2.00239 20.8715 2.0301 20.9667C2.05784 21.062 2.10408 21.151 2.16619 21.2284C2.29162 21.3849 2.47406 21.4851 2.67337 21.507C2.87268 21.5289 3.07253 21.4708 3.22897 21.3453C3.3854 21.2199 3.48561 21.0375 3.50753 20.8382C3.73398 18.8223 4.69527 16.9599 6.20763 15.6079C7.71999 14.2559 9.67746 13.5085 11.706 13.5085C13.7346 13.5085 15.6921 14.2559 17.2044 15.6079C18.7168 16.9599 19.678 18.8217 19.9045 20.8376C19.9249 21.0219 20.0128 21.1925 20.1513 21.3158C20.2898 21.439 20.4691 21.5066 20.6545 21.5055L20.656 21.5055L20.7507 21.5055C20.9421 21.48 21.1165 21.3816 21.2374 21.2306C21.3609 21.0762 21.4184 20.8793 21.3975 20.6827C21.202 18.9241 20.5316 17.252 19.4581 15.8454C18.3846 14.4387 16.9486 13.3506 15.3038 12.6979L14.9444 12.5366ZM9.32486 11.2892C10.0238 11.7562 10.8455 12.0055 11.686 12.0055C12.8132 12.0055 13.8942 11.5577 14.6912 10.7607C15.4883 9.96367 15.936 8.88267 15.936 7.7555C15.936 6.91493 15.6868 6.09323 15.2198 5.39432C14.7528 4.69541 14.089 4.15068 13.3124 3.82901C12.5359 3.50734 11.6813 3.42317 10.8569 3.58716C10.0325 3.75115 9.2752 4.15592 8.68083 4.75029C8.08645 5.34467 7.68168 6.10194 7.51769 6.92636C7.35371 7.75078 7.43787 8.60531 7.75954 9.3819C8.08122 10.1585 8.62595 10.8222 9.32486 11.2892Z" fill="#272727"/>
</svg>
