<svg width="24" height="24" viewBox="0 0 24 24" fill="none" xmlns="http://www.w3.org/2000/svg">
<path fill-rule="evenodd" clip-rule="evenodd" d="M9.51318 13.264L14.9917 15.7885L15.1141 15.6376C15.463 15.2074 15.9029 14.8599 16.4022 14.62C16.9012 14.3802 17.4471 14.2539 18.0007 14.2501C18.7421 14.2503 19.4668 14.4702 20.0833 14.8821C20.7 15.2942 21.1806 15.8798 21.4645 16.5651C21.7483 17.2503 21.8225 18.0043 21.6779 18.7317C21.5332 19.4591 21.176 20.1273 20.6516 20.6518C20.1271 21.1762 19.4589 21.5334 18.7315 21.6781C18.0041 21.8228 17.2501 21.7485 16.5648 21.4647C15.8796 21.1808 15.294 20.7002 14.8819 20.0835C14.4701 19.4673 14.2502 18.7428 14.2499 18.0017C14.2528 17.7783 14.2748 17.5555 14.3157 17.3358L14.3513 17.1444L8.73814 14.5611L8.61512 14.6814C8.08739 15.1974 7.4191 15.5462 6.69401 15.6841C5.96891 15.822 5.21924 15.7428 4.53892 15.4566C3.85861 15.1703 3.2779 14.6896 2.86956 14.0747C2.46122 13.4599 2.24341 12.7382 2.24341 12.0001C2.24341 11.262 2.46122 10.5403 2.86956 9.92548C3.2779 9.31063 3.85861 8.82996 4.53892 8.54368C5.21924 8.2574 5.96891 8.17825 6.69401 8.31614C7.4191 8.45404 8.08739 8.80284 8.61512 9.31886L8.73814 9.43915L14.3513 6.85581L14.3157 6.66439C14.2748 6.44437 14.2527 6.22124 14.2499 5.99746C14.2429 5.11379 14.5482 4.25603 15.112 3.57549C15.6759 2.8948 16.4621 2.43518 17.3319 2.27774C18.2017 2.12031 19.0991 2.27518 19.8658 2.71503C20.6325 3.15488 21.2192 3.85144 21.5224 4.68176C21.8255 5.51208 21.8256 6.42279 21.5226 7.25316C21.2196 8.08354 20.633 8.7802 19.8664 9.22019C19.0998 9.66018 18.2024 9.81522 17.3325 9.65794C16.4627 9.50067 15.6764 9.04119 15.1124 8.36059L14.9898 8.21265L9.51318 10.7362L9.58226 10.9477C9.80558 11.6315 9.80558 12.3687 9.58226 13.0525L9.51318 13.264ZM19.2499 4.12931C18.8799 3.88207 18.4449 3.75011 17.9999 3.75011C17.4032 3.75011 16.8309 3.98717 16.4089 4.40912C15.987 4.83108 15.7499 5.40338 15.7499 6.00011C15.7499 6.44512 15.8819 6.88014 16.1291 7.25015C16.3763 7.62016 16.7277 7.90855 17.1389 8.07884C17.55 8.24914 18.0024 8.2937 18.4389 8.20688C18.8753 8.12006 19.2762 7.90577 19.5909 7.5911C19.9056 7.27644 20.1199 6.87552 20.2067 6.43907C20.2935 6.00261 20.2489 5.55021 20.0786 5.13908C19.9083 4.72794 19.62 4.37654 19.2499 4.12931ZM4.74987 13.8709C5.11988 14.1182 5.5549 14.2501 5.99991 14.2501C6.59664 14.2501 7.16894 14.0131 7.5909 13.5911C8.01285 13.1691 8.24991 12.5969 8.24991 12.0001C8.24991 11.5551 8.11795 11.1201 7.87071 10.7501C7.62348 10.3801 7.27208 10.0917 6.86094 9.92138C6.44981 9.75109 5.99741 9.70653 5.56095 9.79335C5.1245 9.88016 4.72358 10.0945 4.40892 10.4091C4.09425 10.7238 3.87996 11.1247 3.79314 11.5612C3.70632 11.9976 3.75088 12.45 3.92118 12.8612C4.09147 13.2723 4.37986 13.6237 4.74987 13.8709ZM16.7499 19.8709C17.1199 20.1182 17.5549 20.2501 17.9999 20.2501C18.5966 20.2501 19.1689 20.0131 19.5909 19.5911C20.0129 19.1691 20.2499 18.5969 20.2499 18.0001C20.2499 17.5551 20.1179 17.1201 19.8707 16.7501C19.6235 16.3801 19.2721 16.0917 18.8609 15.9214C18.4498 15.7511 17.9974 15.7065 17.561 15.7933C17.1245 15.8802 16.7236 16.0945 16.4089 16.4091C16.0942 16.7238 15.88 17.1247 15.7931 17.5612C15.7063 17.9976 15.7509 18.45 15.9212 18.8612C16.0915 19.2723 16.3799 19.6237 16.7499 19.8709Z" fill="#272727"/>
</svg>
