<svg width="24" height="24" viewBox="0 0 24 24" fill="none" xmlns="http://www.w3.org/2000/svg">
<path fill-rule="evenodd" clip-rule="evenodd" d="M12 7.93994C10.6911 7.93994 9.63 9.00103 9.63 10.3099C9.63 11.6189 10.6911 12.6799 12 12.6799C13.3089 12.6799 14.37 11.6189 14.37 10.3099C14.37 9.00103 13.3089 7.93994 12 7.93994ZM8.13 10.3099C8.13 8.1726 9.86266 6.43994 12 6.43994C14.1373 6.43994 15.87 8.1726 15.87 10.3099C15.87 12.4473 14.1373 14.1799 12 14.1799C9.86266 14.1799 8.13 12.4473 8.13 10.3099Z" fill="#6E7072"/>
<path fill-rule="evenodd" clip-rule="evenodd" d="M12.0032 2.75C8.58651 2.74769 5.24465 4.73032 4.35142 8.65591C3.29436 13.3261 6.18809 17.3762 8.91019 19.9997C10.6407 21.661 13.3607 21.659 15.0792 20.0004L15.0805 19.999C17.8125 17.3756 20.7057 13.3354 19.6485 8.6656L19.6485 8.66556C18.76 4.73971 15.4202 2.75231 12.0032 2.75ZM21.1115 8.33441C20.04 3.60029 15.9848 1.25269 12.0043 1.25C8.02363 1.24731 3.96561 3.58953 2.88869 8.32364L2.88851 8.32441C1.64581 13.8139 5.07179 18.3836 7.86955 21.08L7.87049 21.0809C10.1799 23.2989 13.8191 23.3008 16.1205 21.08C18.9283 18.3834 22.3542 13.8239 21.1115 8.33441Z" fill="#6E7072"/>
</svg>
