<svg width="1366" height="575" viewBox="0 0 1366 575" fill="none" xmlns="http://www.w3.org/2000/svg">
<circle cx="682.5" cy="95.5" r="95.5" fill="#F9D194"/>
<circle cx="682.5" cy="95.5" r="80.5" fill="#FBE1C0"/>
<circle cx="682.5" cy="95.5" r="63.5" fill="white"/>
<ellipse cx="683" cy="634" rx="2155" ry="512" fill="#FFDDAC"/>
<path d="M649.568 176.184C648.544 177.421 647.477 178.744 646.368 180.152C645.301 181.56 644.256 183.032 643.232 184.568C642.208 186.104 641.227 187.683 640.288 189.304C639.349 190.883 638.496 192.461 637.728 194.04H649.568V176.184ZM657.12 166.648V194.04H662.112V200.376H657.12V211H649.568V200.376H630.112V194.872C630.965 192.995 632.096 190.84 633.504 188.408C634.955 185.976 636.555 183.48 638.304 180.92C640.053 178.36 641.909 175.843 643.872 173.368C645.835 170.893 647.797 168.653 649.76 166.648H657.12ZM697.975 188.792C697.975 196.259 696.61 201.997 693.879 206.008C691.148 209.976 687.372 211.96 682.551 211.96C677.73 211.96 673.954 209.976 671.223 206.008C668.492 201.997 667.127 196.259 667.127 188.792C667.127 185.08 667.468 181.795 668.151 178.936C668.876 176.035 669.9 173.603 671.223 171.64C672.588 169.677 674.21 168.184 676.087 167.16C678.007 166.136 680.162 165.624 682.551 165.624C687.372 165.624 691.148 167.629 693.879 171.64C696.61 175.608 697.975 181.325 697.975 188.792ZM689.975 188.792C689.975 186.488 689.847 184.333 689.591 182.328C689.335 180.323 688.908 178.595 688.311 177.144C687.756 175.651 687.01 174.477 686.071 173.624C685.132 172.771 683.959 172.344 682.551 172.344C681.143 172.344 679.948 172.771 678.967 173.624C678.028 174.477 677.26 175.651 676.663 177.144C676.108 178.595 675.703 180.323 675.447 182.328C675.234 184.333 675.127 186.488 675.127 188.792C675.127 191.096 675.234 193.251 675.447 195.256C675.703 197.261 676.108 199.011 676.663 200.504C677.26 201.955 678.028 203.107 678.967 203.96C679.948 204.813 681.143 205.24 682.551 205.24C683.959 205.24 685.132 204.813 686.071 203.96C687.01 203.107 687.756 201.955 688.311 200.504C688.908 199.011 689.335 197.261 689.591 195.256C689.847 193.251 689.975 191.096 689.975 188.792ZM722.318 176.184C721.294 177.421 720.227 178.744 719.118 180.152C718.051 181.56 717.006 183.032 715.982 184.568C714.958 186.104 713.977 187.683 713.038 189.304C712.099 190.883 711.246 192.461 710.478 194.04H722.318V176.184ZM729.87 166.648V194.04H734.862V200.376H729.87V211H722.318V200.376H702.862V194.872C703.715 192.995 704.846 190.84 706.254 188.408C707.705 185.976 709.305 183.48 711.054 180.92C712.803 178.36 714.659 175.843 716.622 173.368C718.585 170.893 720.547 168.653 722.51 166.648H729.87Z" fill="#333333"/>
<path d="M530 91C530 82.1634 537.163 75 546 75C554.837 75 562 82.1635 562 91V124H571C572.105 124 573 123.105 573 122V112C573 107.582 576.582 104 581 104C585.418 104 589 107.582 589 112V124C589 132.837 581.837 140 573 140H562V165H530V125H524C516.268 125 510 118.732 510 111V96C510 92.134 513.134 89 517 89C520.866 89 524 92.134 524 96V109C524 110.105 524.895 111 526 111H530V91Z" fill="#77C7AE"/>
<path d="M724.354 103.756C724.354 100.025 727.347 97 731.038 97C734.729 97 737.722 100.025 737.722 103.756V117.689H740.316C741.421 117.689 742.316 116.793 742.316 115.689V112.622C742.316 110.757 743.813 109.244 745.658 109.244C747.504 109.244 749 110.757 749 112.622V117.689C749 121.42 746.008 124.444 742.316 124.444H737.722V135H724.354V118.111H721.848C718.618 118.111 716 115.465 716 112.2V105.867C716 104.234 717.309 102.911 718.924 102.911C720.539 102.911 721.848 104.234 721.848 105.867V110.2C721.848 111.305 722.744 112.2 723.848 112.2H724.354V103.756Z" fill="#DFA253"/>
<path d="M836 82C836 73.1634 828.837 66 820 66C811.163 66 804 73.1635 804 82V124V140V165H836V125H842C849.732 125 856 118.732 856 111V90C856 86.134 852.866 83 849 83C845.134 83 842 86.134 842 90V102C842 103.105 841.105 104 840 104H836V82Z" fill="#77C7AE"/>
<rect x="548" y="87" width="4" height="8" rx="2" fill="white"/>
<rect x="541" y="131" width="3" height="8" rx="1.5" fill="white"/>
<rect x="536" y="103" width="2" height="5" rx="1" fill="white"/>
<rect x="582" y="111" width="2" height="5" rx="1" fill="white"/>
<rect x="514" y="106" width="2" height="5" rx="1" fill="white"/>
<rect x="577" y="119" width="2" height="4" rx="1" fill="white"/>
<rect x="850" y="91" width="2" height="5" rx="1" fill="white"/>
<rect x="846" y="102" width="2" height="4" rx="1" fill="white"/>
<rect x="518" y="96" width="2" height="4" rx="1" fill="white"/>
<rect x="553" y="113" width="2" height="8" rx="1" fill="white"/>
<rect x="821" y="85" width="4" height="8" rx="2" fill="white"/>
<rect x="814" y="129" width="3" height="8" rx="1.5" fill="white"/>
<rect x="809" y="101" width="2" height="5" rx="1" fill="white"/>
<rect x="826" y="111" width="2" height="8" rx="1" fill="white"/>
</svg>
