<svg width="346" height="256" viewBox="0 0 346 256" fill="none" xmlns="http://www.w3.org/2000/svg">
<g clip-path="url(#clip0_503_4470)">
<rect x="45" width="256" height="256" rx="128" fill="#FBC886"/>
<circle cx="172.5" cy="99.5" r="95.5" fill="#F9D194"/>
<circle cx="172.5" cy="99.5" r="80.5" fill="#FBE1C0"/>
<circle cx="172.5" cy="99.5" r="63.5" fill="white"/>
<circle cx="173" cy="638" r="512" fill="#FFDDAC"/>
<path d="M145.992 171V154.368H156.672V156.936H149.016V161.04H155.832V163.56H149.016V168.432H157.248V171H145.992ZM167.063 161.064C166.823 160.984 166.487 160.904 166.055 160.824C165.639 160.728 165.151 160.68 164.591 160.68C164.271 160.68 163.927 160.712 163.559 160.776C163.207 160.84 162.959 160.896 162.815 160.944V171H159.911V159.048C160.471 158.84 161.167 158.648 161.999 158.472C162.847 158.28 163.783 158.184 164.807 158.184C164.999 158.184 165.223 158.2 165.479 158.232C165.735 158.248 165.991 158.28 166.247 158.328C166.503 158.36 166.751 158.408 166.991 158.472C167.231 158.52 167.423 158.568 167.567 158.616L167.063 161.064ZM176.742 161.064C176.502 160.984 176.166 160.904 175.734 160.824C175.318 160.728 174.83 160.68 174.27 160.68C173.95 160.68 173.606 160.712 173.238 160.776C172.886 160.84 172.638 160.896 172.494 160.944V171H169.59V159.048C170.15 158.84 170.846 158.648 171.678 158.472C172.526 158.28 173.462 158.184 174.486 158.184C174.678 158.184 174.902 158.2 175.158 158.232C175.414 158.248 175.67 158.28 175.926 158.328C176.182 158.36 176.43 158.408 176.67 158.472C176.91 158.52 177.102 158.568 177.246 158.616L176.742 161.064ZM190.622 164.712C190.622 165.704 190.478 166.608 190.19 167.424C189.902 168.24 189.494 168.936 188.966 169.512C188.438 170.088 187.798 170.536 187.046 170.856C186.31 171.176 185.494 171.336 184.598 171.336C183.702 171.336 182.886 171.176 182.15 170.856C181.414 170.536 180.782 170.088 180.254 169.512C179.726 168.936 179.31 168.24 179.006 167.424C178.718 166.608 178.574 165.704 178.574 164.712C178.574 163.72 178.718 162.824 179.006 162.024C179.31 161.208 179.726 160.512 180.254 159.936C180.798 159.36 181.438 158.92 182.174 158.616C182.91 158.296 183.718 158.136 184.598 158.136C185.478 158.136 186.286 158.296 187.022 158.616C187.774 158.92 188.414 159.36 188.942 159.936C189.47 160.512 189.878 161.208 190.166 162.024C190.47 162.824 190.622 163.72 190.622 164.712ZM187.646 164.712C187.646 163.464 187.374 162.48 186.83 161.76C186.302 161.024 185.558 160.656 184.598 160.656C183.638 160.656 182.886 161.024 182.342 161.76C181.814 162.48 181.55 163.464 181.55 164.712C181.55 165.976 181.814 166.976 182.342 167.712C182.886 168.448 183.638 168.816 184.598 168.816C185.558 168.816 186.302 168.448 186.83 167.712C187.374 166.976 187.646 165.976 187.646 164.712ZM200.766 161.064C200.526 160.984 200.19 160.904 199.758 160.824C199.342 160.728 198.854 160.68 198.294 160.68C197.974 160.68 197.63 160.712 197.262 160.776C196.91 160.84 196.662 160.896 196.518 160.944V171H193.614V159.048C194.174 158.84 194.87 158.648 195.702 158.472C196.55 158.28 197.486 158.184 198.51 158.184C198.702 158.184 198.926 158.2 199.182 158.232C199.438 158.248 199.694 158.28 199.95 158.328C200.206 158.36 200.454 158.408 200.694 158.472C200.934 158.52 201.126 158.568 201.27 158.616L200.766 161.064Z" fill="#333333"/>
<path d="M148.176 188.888C147.408 189.816 146.608 190.808 145.776 191.864C144.976 192.92 144.192 194.024 143.424 195.176C142.656 196.328 141.92 197.512 141.216 198.728C140.512 199.912 139.872 201.096 139.296 202.28H148.176V188.888ZM153.84 181.736V202.28H157.584V207.032H153.84V215H148.176V207.032H133.584V202.904C134.224 201.496 135.072 199.88 136.128 198.056C137.216 196.232 138.416 194.36 139.728 192.44C141.04 190.52 142.432 188.632 143.904 186.776C145.376 184.92 146.848 183.24 148.32 181.736H153.84ZM184.481 198.344C184.481 203.944 183.457 208.248 181.409 211.256C179.361 214.232 176.529 215.72 172.913 215.72C169.297 215.72 166.465 214.232 164.417 211.256C162.369 208.248 161.345 203.944 161.345 198.344C161.345 195.56 161.601 193.096 162.113 190.952C162.657 188.776 163.425 186.952 164.417 185.48C165.441 184.008 166.657 182.888 168.065 182.12C169.505 181.352 171.121 180.968 172.913 180.968C176.529 180.968 179.361 182.472 181.409 185.48C183.457 188.456 184.481 192.744 184.481 198.344ZM178.481 198.344C178.481 196.616 178.385 195 178.193 193.496C178.001 191.992 177.681 190.696 177.233 189.608C176.817 188.488 176.257 187.608 175.553 186.968C174.849 186.328 173.969 186.008 172.913 186.008C171.857 186.008 170.961 186.328 170.225 186.968C169.521 187.608 168.945 188.488 168.497 189.608C168.081 190.696 167.777 191.992 167.585 193.496C167.425 195 167.345 196.616 167.345 198.344C167.345 200.072 167.425 201.688 167.585 203.192C167.777 204.696 168.081 206.008 168.497 207.128C168.945 208.216 169.521 209.08 170.225 209.72C170.961 210.36 171.857 210.68 172.913 210.68C173.969 210.68 174.849 210.36 175.553 209.72C176.257 209.08 176.817 208.216 177.233 207.128C177.681 206.008 178.001 204.696 178.193 203.192C178.385 201.688 178.481 200.072 178.481 198.344ZM202.739 188.888C201.971 189.816 201.171 190.808 200.339 191.864C199.539 192.92 198.755 194.024 197.987 195.176C197.219 196.328 196.483 197.512 195.779 198.728C195.075 199.912 194.435 201.096 193.859 202.28H202.739V188.888ZM208.403 181.736V202.28H212.147V207.032H208.403V215H202.739V207.032H188.146V202.904C188.787 201.496 189.635 199.88 190.691 198.056C191.779 196.232 192.979 194.36 194.291 192.44C195.603 190.52 196.995 188.632 198.467 186.776C199.939 184.92 201.411 183.24 202.883 181.736H208.403Z" fill="#333333"/>
</g>
<path d="M20 95C20 86.1634 27.1635 79 36 79C44.8365 79 52 86.1635 52 95V128H61C62.1046 128 63 127.105 63 126V116C63 111.582 66.5817 108 71 108C75.4183 108 79 111.582 79 116V128C79 136.837 71.8365 144 63 144H52V169C34.3269 169 20 154.673 20 137V129H14C6.26801 129 0 122.732 0 115V100C0 96.134 3.134 93 7 93C10.866 93 14 96.134 14 100V113C14 114.105 14.8954 115 16 115H20V95Z" fill="#77C7AE"/>
<path d="M326 86C326 77.1634 318.837 70 310 70C301.163 70 294 77.1635 294 86V128V144V169C311.673 169 326 154.673 326 137V129H332C339.732 129 346 122.732 346 115V94C346 90.134 342.866 87 339 87C335.134 87 332 90.134 332 94V106C332 107.105 331.105 108 330 108H326V86Z" fill="#77C7AE"/>
<rect x="38" y="91" width="4" height="8" rx="2" fill="white"/>
<rect x="31" y="135" width="3" height="8" rx="1.5" fill="white"/>
<rect x="26" y="107" width="2" height="5" rx="1" fill="white"/>
<rect x="72" y="115" width="2" height="5" rx="1" fill="white"/>
<rect x="4" y="110" width="2" height="5" rx="1" fill="white"/>
<rect x="67" y="123" width="2" height="4" rx="1" fill="white"/>
<rect x="340" y="95" width="2" height="5" rx="1" fill="white"/>
<rect x="336" y="106" width="2" height="4" rx="1" fill="white"/>
<rect x="8" y="100" width="2" height="4" rx="1" fill="white"/>
<rect x="43" y="117" width="2" height="8" rx="1" fill="white"/>
<rect x="311" y="89" width="4" height="8" rx="2" fill="white"/>
<rect x="304" y="133" width="3" height="8" rx="1.5" fill="white"/>
<rect x="299" y="105" width="2" height="5" rx="1" fill="white"/>
<rect x="316" y="115" width="2" height="8" rx="1" fill="white"/>
<defs>
<clipPath id="clip0_503_4470">
<rect x="45" width="256" height="256" rx="128" fill="white"/>
</clipPath>
</defs>
</svg>
